<svg xmlns="http://www.w3.org/2000/svg" xmlns:xlink="http://www.w3.org/1999/xlink" id="Layer_1" x="0px" y="0px" viewBox="0 0 7322.9 70" style="enable-background:new 0 0 7322.9 70;" xml:space="preserve"><style type="text/css">	.st0{fill:#FFFFFF;}</style><g>	<g>		<g>			<path class="st0" d="M0,17.5h22.5v5.1H6.2v9.1h14.1v5.1H6.2v15.8H0V17.5z"></path>			<path class="st0" d="M44,53.5c-10.3,0-18.3-7.8-18.3-18.5s8-18.5,18.3-18.5S62.4,24.2,62.4,35S54.3,53.5,44,53.5z M44,21.7    c-6.4,0-11.6,5.1-11.6,13.3S37.6,48.3,44,48.3S55.7,43.2,55.7,35S50.5,21.7,44,21.7z"></path>			<path class="st0" d="M85.3,53.5C75,53.5,67,45.8,67,35s8-18.5,18.3-18.5s18.3,7.8,18.3,18.5S95.5,53.5,85.3,53.5z M85.3,21.7    c-6.4,0-11.6,5.1-11.6,13.3s5.2,13.3,11.6,13.3S96.9,43.2,96.9,35S91.6,21.7,85.3,21.7z"></path>			<path class="st0" d="M110,17.5h15.7c8.5,0,16.1,5.4,16.1,17.5s-7.6,17.5-16.1,17.5H110V17.5z M116.3,47.4h6.4    c7.9,0,12.5-4.3,12.5-12.4c0.1-8.1-4.6-12.4-12.5-12.4h-6.4C116.3,22.6,116.3,47.4,116.3,47.4z"></path>			<path class="st0" d="M148.6,52.4V17.5h6.2v35L148.6,52.4L148.6,52.4z"></path>			<path class="st0" d="M163.2,52.4V17.5h22.5v5.1h-16.4v9.1h14.1v5.1h-14.1v10.6H186v5.1L163.2,52.4L163.2,52.4z"></path>			<path class="st0" d="M207.6,17.5h15.7c8.5,0,16.1,5.4,16.1,17.5s-7.6,17.5-16.1,17.5h-15.7V17.5z M213.7,47.4h6.4    c7.9,0,12.5-4.3,12.5-12.4c0.1-8.1-4.6-12.4-12.5-12.4h-6.4V47.4z"></path>			<path class="st0" d="M245.8,52.4V17.5h22.5v5.1h-16.4v9.1H266v5.1h-14.1v10.6h16.7v5.1L245.8,52.4L245.8,52.4z"></path>			<path class="st0" d="M281.6,47.4h16.6v5.1h-22.8v-35h6.2L281.6,47.4L281.6,47.4z"></path>			<path class="st0" d="M303.9,52.4V17.5h6.2v35L303.9,52.4L303.9,52.4z"></path>			<path class="st0" d="M327.9,52.4l-13.7-35h6.7L331.1,44l9.8-26.5h6.7l-13.2,35L327.9,52.4L327.9,52.4z"></path>			<path class="st0" d="M351.4,52.4V17.5h22.5v5.1h-16.4v9.1h14.1v5.1h-14.1v10.6h16.7v5.1L351.4,52.4L351.4,52.4z"></path>			<path class="st0" d="M380.8,52.4V17.5h15.5c6.1,0,10.4,2.7,10.4,9.4c0,5.2-2.9,7.3-7.3,8.1v0.1c4.8,0.2,6.6,2.7,6.6,7.3v5.3    c0,2,0.6,3.4,2,4.8h-7.6c-1-1.5-0.9-3.4-0.9-4.6v-4.5c0.1-5-0.4-5.5-6.1-5.5h-6.6v14.6L380.8,52.4L380.8,52.4z M387,32.6h6.7    c4.3,0,6.6-1.9,6.6-4.8c0-3.1-2.3-4.9-5.5-4.9H387V32.6z"></path>			<path class="st0" d="M421.9,39.8l-12.8-22.3h7.1l8.9,16.2l8.5-16.2h7.1l-12.5,22.3v12.7H422L421.9,39.8L421.9,39.8z"></path>			<path class="st0" d="M458.9,17.5h22.5v5.1H465v9.1h14.1v5.1H465v15.8h-6.2V17.5H458.9z"></path>			<path class="st0" d="M503,53.5c-10.3,0-18.3-7.8-18.3-18.5s8-18.5,18.3-18.5s18.3,7.8,18.3,18.5S513.2,53.5,503,53.5z M503,21.7    c-6.4,0-11.6,5.1-11.6,13.3s5.2,13.3,11.6,13.3s11.6-5.1,11.6-13.3S509.4,21.7,503,21.7z"></path>			<path class="st0" d="M544.1,53.5c-10.3,0-18.3-7.8-18.3-18.5s8-18.5,18.3-18.5s18.3,7.8,18.3,18.5S554.4,53.5,544.1,53.5z     M544.1,21.7c-6.4,0-11.6,5.1-11.6,13.3s5.2,13.3,11.6,13.3s11.6-5.1,11.6-13.3S550.5,21.7,544.1,21.7z"></path>			<path class="st0" d="M569,17.5h15.7c8.5,0,16.1,5.4,16.1,17.5s-7.6,17.5-16.1,17.5H569V17.5z M575.1,47.4h6.4    c7.9,0,12.5-4.3,12.5-12.4c0.1-8.1-4.6-12.4-12.5-12.4h-6.4V47.4z"></path>		</g>		<g>			<g>				<g>					<path class="st0" d="M694.3,20.8c-2.2-2.2-5.3-3.3-9.2-3.3c-3.3,0-6.7,1.1-9.5,3.1c-2.7,2-4.7,4.6-5.6,7.6      c-4.5,1.1-9.2,2.2-14.1,2.2c-10.9,0-14.2-6-18.5-2.6c-4.2,3.2,0.4,11.3,4.6,15.4c7.6,7.2,14.4,9.3,23.2,9.3      c9.9,0.3,19-4.2,23.8-10.3c0.6-0.5,1.3-1,1.9-1.5c4.1-3.6,6.4-8.1,6.4-12.3C697.3,25.4,696.2,22.7,694.3,20.8z M689.3,38.9      c-3.3,2.9-7.4,4.7-10.6,4.7c-2,0-3.2-0.5-3.9-1.1c0.6-0.3,1.2-0.6,1.8-0.8c4-2.2,7.1-5.2,9-8.9c0.3-0.6,0.1-1.3-0.6-1.6      c-0.6-0.3-1.3-0.1-1.6,0.6c-2,4.1-6,7.3-10.7,9.2c-0.1,0-0.2,0.1-0.3,0.1c-2.5,0.9-5.2,1.5-8,1.5c-1.8,0-7.6-0.3-7.6-3.7      c0-0.7,0.3-2.4,3.4-2.4c2.2,0,4.9-0.1,7.1-1.1c2.5-1.1,4.1-3.1,5-5.9c1.6-5.3,7.1-9.4,12.9-9.4c7.2,0,9.8,4.4,9.8,8.5      C694.9,32,692.9,35.8,689.3,38.9z"></path>				</g>			</g>		</g>		<g>			<path class="st0" d="M732.3,17.5h22.5v5.1h-16.3v9.1h14.1v5.1h-14.1v15.8h-6.2V17.5L732.3,17.5z"></path>			<path class="st0" d="M776.4,53.5c-10.3,0-18.3-7.8-18.3-18.5s8-18.5,18.3-18.5s18.3,7.8,18.3,18.5S786.7,53.5,776.4,53.5z     M776.4,21.7c-6.4,0-11.6,5.1-11.6,13.3s5.2,13.3,11.6,13.3c6.4,0,11.6-5.1,11.6-13.3C788,26.7,782.7,21.7,776.4,21.7z"></path>			<path class="st0" d="M817.5,53.5c-10.3,0-18.3-7.8-18.3-18.5s8-18.5,18.3-18.5s18.3,7.8,18.3,18.5S827.8,53.5,817.5,53.5z     M817.5,21.7c-6.4,0-11.6,5.1-11.6,13.3s5.2,13.3,11.6,13.3c6.4,0,11.6-5.1,11.6-13.3C829.2,26.7,824,21.7,817.5,21.7z"></path>			<path class="st0" d="M842.4,17.5h15.7c8.5,0,16.1,5.4,16.1,17.5s-7.6,17.5-16.1,17.5h-15.7V17.5z M848.5,47.4h6.4    c7.9,0,12.5-4.3,12.5-12.4c0.1-8.1-4.6-12.4-12.5-12.4h-6.4V47.4z"></path>			<path class="st0" d="M880.9,52.4V17.5h6.2v35L880.9,52.4L880.9,52.4z"></path>			<path class="st0" d="M895.4,52.4V17.5H918v5.1h-16.4v9.1h14.1v5.1h-14.1v10.6h16.7v5.1L895.4,52.4L895.4,52.4z"></path>			<path class="st0" d="M939.8,17.5h15.7c8.5,0,16.1,5.4,16.1,17.5s-7.6,17.5-16.1,17.5h-15.7V17.5z M946,47.4h6.4    c7.9,0,12.5-4.3,12.5-12.4c0.1-8.1-4.6-12.4-12.5-12.4H946V47.4z"></path>			<path class="st0" d="M978,52.4V17.5h22.5v5.1h-16.4v9.1h14.1v5.1h-14.1v10.6h16.7v5.1L978,52.4L978,52.4z"></path>			<path class="st0" d="M1013.9,47.4h16.6v5.1h-22.8v-35h6.2V47.4L1013.9,47.4z"></path>			<path class="st0" d="M1036.1,52.4V17.5h6.2v35L1036.1,52.4L1036.1,52.4z"></path>			<path class="st0" d="M1060.2,52.4l-13.7-34.9h6.7l10.2,26.5l9.7-26.5h6.7l-13.2,35L1060.2,52.4L1060.2,52.4z"></path>			<path class="st0" d="M1083.7,52.4V17.5h22.5v5.1h-16.4v9.1h14.1v5.1h-14.1v10.6h16.7v5.1L1083.7,52.4L1083.7,52.4z"></path>			<path class="st0" d="M1113.1,52.4V17.5h15.5c6.1,0,10.4,2.7,10.4,9.4c0,5.2-2.9,7.3-7.3,8.1v0.1c4.8,0.2,6.7,2.7,6.7,7.3v5.3    c0,2,0.6,3.4,2,4.8h-7.6c-1.1-1.5-0.9-3.4-0.9-4.6v-4.5c0.1-5-0.4-5.5-6.1-5.5h-6.6v14.6L1113.1,52.4L1113.1,52.4z M1119.2,32.6    h6.7c4.3,0,6.6-1.9,6.6-4.8c0-3.1-2.3-4.9-5.5-4.9h-7.8L1119.2,32.6L1119.2,32.6z"></path>			<path class="st0" d="M1154.2,39.8l-12.8-22.3h7.1l8.9,16.2l8.5-16.2h7.1l-12.5,22.3v12.7h-6.2L1154.2,39.8L1154.2,39.8z"></path>			<path class="st0" d="M1191.2,17.5h22.5v5.1h-16.4v9.1h14.1v5.1h-14.1v15.8h-6.2L1191.2,17.5L1191.2,17.5z"></path>			<path class="st0" d="M1235.2,53.5c-10.3,0-18.3-7.8-18.3-18.5s8-18.5,18.3-18.5s18.3,7.8,18.3,18.5S1245.5,53.5,1235.2,53.5z     M1235.2,21.7c-6.4,0-11.6,5.1-11.6,13.3s5.2,13.3,11.6,13.3s11.6-5.1,11.6-13.3S1241.7,21.7,1235.2,21.7z"></path>			<path class="st0" d="M1276.4,53.5c-10.3,0-18.3-7.8-18.3-18.5s8-18.5,18.3-18.5s18.3,7.8,18.3,18.5S1286.7,53.5,1276.4,53.5z     M1276.4,21.7c-6.4,0-11.6,5.1-11.6,13.3s5.2,13.3,11.6,13.3S1288,43.2,1288,35C1288,26.7,1282.8,21.7,1276.4,21.7z"></path>			<path class="st0" d="M1301.2,17.5h15.7c8.5,0,16.1,5.4,16.1,17.5s-7.6,17.5-16.1,17.5h-15.7V17.5z M1307.5,47.4h6.4    c7.9,0,12.5-4.3,12.5-12.4c0.1-8.1-4.6-12.4-12.5-12.4h-6.4V47.4z"></path>		</g>		<g>			<g>				<g>					<path class="st0" d="M1426.5,20.8c-2.2-2.2-5.3-3.3-9.2-3.3c-3.3,0-6.6,1.1-9.4,3.1c-2.7,2-4.7,4.6-5.6,7.6      c-4.5,1.1-9.2,2.2-14.1,2.2c-10.9,0-14.2-6-18.5-2.6c-4.2,3.2,0.3,11.3,4.6,15.4c7.6,7.2,14.5,9.3,23.2,9.3      c9.9,0.3,19-4.2,23.9-10.3c0.6-0.5,1.3-1,1.9-1.5c4.1-3.6,6.4-8.1,6.4-12.3C1429.6,25.4,1428.5,22.7,1426.5,20.8z M1421.6,38.9      c-3.3,2.9-7.3,4.7-10.6,4.7c-2,0-3.2-0.5-3.9-1.1c0.6-0.3,1.2-0.6,1.8-0.8c4-2.2,7.1-5.2,9-8.9c0.3-0.6,0.1-1.3-0.6-1.6      s-1.3-0.1-1.6,0.6c-2,4.1-6,7.3-10.7,9.2c-0.1,0-0.2,0.1-0.3,0.1c-2.5,0.9-5.3,1.5-8,1.5c-1.8,0-7.6-0.3-7.6-3.7      c0-0.7,0.3-2.4,3.4-2.4c2.2,0,4.9-0.1,7.1-1.1c2.4-1.1,4.1-3.1,5-5.9c1.6-5.3,7.1-9.4,12.9-9.4c7.2,0,9.8,4.4,9.8,8.5      C1427.2,32,1425.1,35.8,1421.6,38.9z"></path>				</g>			</g>		</g>		<g>			<path class="st0" d="M1464.6,17.5h22.5v5.1h-16.4v9.1h14.1v5.1h-14.1v15.7h-6.2L1464.6,17.5L1464.6,17.5z"></path>			<path class="st0" d="M1508.6,53.5c-10.3,0-18.3-7.8-18.3-18.5s8-18.5,18.3-18.5s18.3,7.8,18.3,18.5S1518.9,53.5,1508.6,53.5z     M1508.6,21.7c-6.4,0-11.6,5.1-11.6,13.3s5.2,13.3,11.6,13.3s11.6-5.1,11.6-13.3S1515.1,21.7,1508.6,21.7z"></path>			<path class="st0" d="M1549.8,53.5c-10.3,0-18.3-7.8-18.3-18.5s8-18.5,18.3-18.5s18.3,7.8,18.3,18.5S1560.1,53.5,1549.8,53.5z     M1549.8,21.7c-6.4,0-11.6,5.1-11.6,13.3s5.2,13.3,11.6,13.3s11.6-5.1,11.6-13.3S1556.2,21.7,1549.8,21.7z"></path>			<path class="st0" d="M1574.7,17.5h15.7c8.5,0,16.1,5.4,16.1,17.5s-7.6,17.5-16.1,17.5h-15.7V17.5z M1580.8,47.4h6.4    c7.9,0,12.5-4.3,12.5-12.4c0.1-8.1-4.6-12.4-12.5-12.4h-6.4V47.4z"></path>			<path class="st0" d="M1613.2,52.5v-35h6.2v35H1613.2z"></path>			<path class="st0" d="M1627.7,52.5v-35h22.5v5.1h-16.4v9.1h14.1v5.1h-14.1v10.6h16.7v5L1627.7,52.5L1627.7,52.5z"></path>			<path class="st0" d="M1672.1,17.5h15.7c8.5,0,16.1,5.4,16.1,17.5s-7.6,17.5-16.1,17.5h-15.7V17.5z M1678.3,47.4h6.4    c7.9,0,12.5-4.3,12.5-12.4c0.1-8.1-4.6-12.4-12.5-12.4h-6.4V47.4z"></path>			<path class="st0" d="M1710.4,52.5v-35h22.5v5.1h-16.4v9.1h14.1v5.1h-14.1v10.6h16.7v5L1710.4,52.5L1710.4,52.5z"></path>			<path class="st0" d="M1746.2,47.4h16.6v5.1H1740v-35h6.2V47.4L1746.2,47.4z"></path>			<path class="st0" d="M1768.5,52.5v-35h6.2v35H1768.5z"></path>			<path class="st0" d="M1792.4,52.5l-13.7-35h6.7l10.2,26.5l9.7-26.5h6.7l-13.2,35C1798.9,52.5,1792.4,52.5,1792.4,52.5z"></path>			<path class="st0" d="M1816,52.5v-35h22.5v5.1h-16.4v9.1h14.1v5.1h-14.1v10.6h16.7v5L1816,52.5L1816,52.5z"></path>			<path class="st0" d="M1845.3,52.5v-35h15.5c6.1,0,10.4,2.7,10.4,9.4c0,5.2-2.9,7.3-7.3,8.1v0.1c4.8,0.2,6.6,2.7,6.6,7.3v5.3    c0,2,0.6,3.4,2,4.8h-7.6c-1-1.5-0.9-3.4-0.9-4.6v-4.4c0.1-5-0.4-5.5-6.1-5.5h-6.6v14.6L1845.3,52.5L1845.3,52.5z M1851.6,32.6    h6.7c4.3,0,6.6-1.9,6.6-4.8c0-3.1-2.3-4.9-5.5-4.9h-7.8L1851.6,32.6L1851.6,32.6z"></path>			<path class="st0" d="M1886.5,39.8l-12.8-22.3h7.1l8.9,16.2l8.5-16.2h7.1l-12.5,22.3v12.7h-6.2L1886.5,39.8L1886.5,39.8z"></path>			<path class="st0" d="M1923.5,17.5h22.5v5.1h-16.4v9.1h14.1v5.1h-14.1v15.7h-6.2L1923.5,17.5L1923.5,17.5z"></path>			<path class="st0" d="M1967.6,53.5c-10.3,0-18.3-7.8-18.3-18.5s8-18.5,18.3-18.5s18.3,7.8,18.3,18.5S1977.8,53.5,1967.6,53.5z     M1967.6,21.7c-6.4,0-11.6,5.1-11.6,13.3s5.2,13.3,11.6,13.3s11.6-5.1,11.6-13.3S1973.9,21.7,1967.6,21.7z"></path>			<path class="st0" d="M2008.7,53.5c-10.3,0-18.3-7.8-18.3-18.5s8-18.5,18.3-18.5S2027,24.2,2027,35S2019,53.5,2008.7,53.5z     M2008.7,21.7c-6.4,0-11.6,5.1-11.6,13.3s5.2,13.3,11.6,13.3s11.6-5.1,11.6-13.3C2020.3,26.8,2015.1,21.7,2008.7,21.7z"></path>			<path class="st0" d="M2033.6,17.5h15.7c8.5,0,16.1,5.4,16.1,17.5s-7.6,17.5-16.1,17.5h-15.7L2033.6,17.5L2033.6,17.5z     M2039.7,47.4h6.4c7.9,0,12.5-4.3,12.5-12.4c0.1-8.1-4.6-12.4-12.5-12.4h-6.4L2039.7,47.4L2039.7,47.4z"></path>		</g>		<g>			<g>				<g>					<path class="st0" d="M2158.9,20.8c-2.2-2.2-5.3-3.3-9.2-3.3c-3.3,0-6.6,1.1-9.4,3.1c-2.7,2-4.7,4.6-5.6,7.6      c-4.5,1.1-9.2,2.2-14.1,2.2c-10.9,0-14.2-6-18.5-2.6c-4.2,3.2,0.3,11.3,4.5,15.4c7.6,7.2,14.6,9.3,23.2,9.3      c9.9,0.3,19-4.2,23.9-10.3c0.6-0.5,1.3-1,1.9-1.5c4.1-3.6,6.4-8.1,6.4-12.3C2161.9,25.5,2160.8,22.8,2158.9,20.8z M2153.9,38.9      c-3.3,2.9-7.3,4.7-10.6,4.7c-2,0-3.1-0.5-3.9-1.1c0.6-0.3,1.2-0.6,1.8-0.8c4-2.2,7.1-5.2,9-8.9c0.3-0.6,0.1-1.3-0.6-1.6      s-1.3-0.1-1.6,0.6c-2,4.1-6,7.3-10.7,9.2c-0.1,0-0.2,0.1-0.3,0.1c-2.5,0.9-5.3,1.5-8.1,1.5c-1.8,0-7.6-0.3-7.6-3.7      c0-0.7,0.3-2.4,3.4-2.4c2.2,0,4.9-0.1,7.1-1.1c2.4-1.1,4.1-3.1,5-5.9c1.6-5.3,7.1-9.4,12.9-9.4c7.2,0,9.8,4.4,9.8,8.5      C2159.4,32.1,2157.4,35.8,2153.9,38.9z"></path>				</g>			</g>		</g>		<g>			<path class="st0" d="M2196.9,17.5h22.5v5.1H2203v9.1h14.1v5.1H2203v15.7h-6.2L2196.9,17.5L2196.9,17.5z"></path>			<path class="st0" d="M2240.9,53.5c-10.3,0-18.3-7.8-18.3-18.5s8-18.5,18.3-18.5s18.3,7.8,18.3,18.5S2251.2,53.5,2240.9,53.5z     M2240.9,21.7c-6.4,0-11.6,5.1-11.6,13.3s5.2,13.3,11.6,13.3c6.4,0,11.6-5.1,11.6-13.3S2247.4,21.7,2240.9,21.7z"></path>			<path class="st0" d="M2282.1,53.5c-10.3,0-18.3-7.8-18.3-18.5s8-18.5,18.3-18.5s18.3,7.8,18.3,18.5S2292.4,53.5,2282.1,53.5z     M2282.1,21.7c-6.4,0-11.6,5.1-11.6,13.3s5.2,13.3,11.6,13.3c6.4,0,11.6-5.1,11.6-13.3S2288.5,21.7,2282.1,21.7z"></path>			<path class="st0" d="M2306.9,17.5h15.7c8.5,0,16.1,5.4,16.1,17.5s-7.6,17.5-16.1,17.5h-15.7V17.5z M2313.1,47.4h6.4    c7.9,0,12.5-4.3,12.5-12.4c0.1-8.1-4.6-12.4-12.5-12.4h-6.4V47.4z"></path>			<path class="st0" d="M2345.4,52.5v-35h6.2v35C2351.6,52.5,2345.4,52.5,2345.4,52.5z"></path>			<path class="st0" d="M2360,52.5v-35h22.5v5.1h-16.4v9.1h14.1v5.1h-14.1v10.6h16.7v5L2360,52.5L2360,52.5z"></path>			<path class="st0" d="M2404.4,17.5h15.7c8.5,0,16.1,5.4,16.1,17.5s-7.6,17.5-16.1,17.5h-15.7V17.5z M2410.6,47.4h6.4    c7.9,0,12.5-4.3,12.5-12.4c0.1-8.1-4.6-12.4-12.5-12.4h-6.4V47.4z"></path>			<path class="st0" d="M2442.6,52.5v-35h22.5v5.1h-16.4v9.1h14.1v5.1h-14.1v10.6h16.7v5L2442.6,52.5L2442.6,52.5z"></path>			<path class="st0" d="M2478.5,47.4h16.6v5.1h-22.8v-35h6.2V47.4L2478.5,47.4z"></path>			<path class="st0" d="M2500.8,52.5v-35h6.2v35H2500.8z"></path>			<path class="st0" d="M2524.7,52.5l-13.6-35h6.7L2528,44l9.7-26.5h6.7l-13.2,35C2531.3,52.5,2524.7,52.5,2524.7,52.5z"></path>			<path class="st0" d="M2548.3,52.5v-35h22.5v5.1h-16.4v9.1h14.1v5.1h-14.1v10.6h16.7v5L2548.3,52.5L2548.3,52.5z"></path>			<path class="st0" d="M2577.7,52.5v-35h15.5c6.1,0,10.4,2.7,10.4,9.4c0,5.2-2.9,7.3-7.3,8.1v0.1c4.8,0.2,6.6,2.7,6.6,7.3v5.3    c0,2,0.6,3.4,2,4.8h-7.6c-1.1-1.5-0.9-3.4-0.9-4.6v-4.4c0.1-5-0.4-5.5-6.1-5.5h-6.6v14.6L2577.7,52.5L2577.7,52.5z M2583.8,32.6    h6.7c4.3,0,6.6-1.9,6.6-4.8c0-3.1-2.3-4.9-5.5-4.9h-7.8V32.6z"></path>			<path class="st0" d="M2618.8,39.8L2606,17.5h7.1l8.9,16.2l8.5-16.2h7.1L2625,39.8v12.7h-6.2V39.8L2618.8,39.8z"></path>			<path class="st0" d="M2655.7,17.5h22.5v5.1h-16.4v9.1h14.1v5.1h-14.1v15.7h-6.2L2655.7,17.5L2655.7,17.5z"></path>			<path class="st0" d="M2699.8,53.5c-10.3,0-18.3-7.8-18.3-18.5s8-18.5,18.3-18.5s18.3,7.8,18.3,18.5S2710.1,53.5,2699.8,53.5z     M2699.8,21.7c-6.4,0-11.6,5.1-11.6,13.3s5.2,13.3,11.6,13.3c6.4,0,11.6-5.1,11.6-13.3S2706.3,21.7,2699.8,21.7z"></path>			<path class="st0" d="M2741,53.5c-10.3,0-18.3-7.8-18.3-18.5s8-18.5,18.3-18.5s18.3,7.8,18.3,18.5S2751.3,53.5,2741,53.5z     M2741,21.7c-6.4,0-11.6,5.1-11.6,13.3s5.2,13.3,11.6,13.3s11.6-5.1,11.6-13.3S2747.4,21.7,2741,21.7z"></path>			<path class="st0" d="M2765.8,17.5h15.7c8.5,0,16.1,5.4,16.1,17.5s-7.6,17.5-16.1,17.5h-15.7V17.5z M2772,47.4h6.4    c7.9,0,12.5-4.3,12.5-12.4c0.1-8.1-4.6-12.4-12.5-12.4h-6.4V47.4z"></path>		</g>		<g>			<g>				<g>					<path class="st0" d="M2891.1,20.8c-2.2-2.2-5.3-3.3-9.2-3.3c-3.3,0-6.6,1.1-9.4,3.1c-2.7,2-4.7,4.6-5.6,7.6      c-4.5,1.1-9.2,2.2-14.1,2.2c-10.9,0-14.2-6-18.5-2.6c-4.2,3.2,0.3,11.3,4.6,15.4c7.6,7.2,14.6,9.3,23.2,9.3      c9.9,0.3,19-4.2,23.9-10.3c0.6-0.5,1.3-1,1.9-1.5c4.1-3.6,6.4-8.1,6.4-12.3C2894.1,25.5,2893.1,22.8,2891.1,20.8z M2886.2,38.9      c-3.3,2.9-7.4,4.7-10.6,4.7c-2,0-3.2-0.5-3.9-1.1c0.6-0.3,1.2-0.6,1.8-0.8c4-2.2,7.1-5.2,9-8.9c0.3-0.6,0.1-1.3-0.6-1.6      c-0.6-0.3-1.3-0.1-1.6,0.6c-2,4.1-6,7.3-10.7,9.2c-0.1,0-0.2,0.1-0.3,0.1c-2.5,0.9-5.3,1.5-8.1,1.5c-1.8,0-7.6-0.3-7.6-3.7      c0-0.7,0.4-2.4,3.4-2.4c2.2,0,4.9-0.1,7.1-1.1c2.5-1.1,4.1-3.1,5-5.9c1.6-5.3,7.1-9.4,12.9-9.4c7.2,0,9.8,4.4,9.8,8.5      C2891.8,32.1,2889.7,35.8,2886.2,38.9z"></path>				</g>			</g>		</g>		<g>			<path class="st0" d="M2929.1,17.6h22.5v5.1h-16.4v9.1h14.1v5.1h-14.1v15.6h-6.2L2929.1,17.6L2929.1,17.6z"></path>			<path class="st0" d="M2973.2,53.6c-10.3,0-18.3-7.8-18.3-18.5s8-18.6,18.3-18.6s18.3,7.8,18.3,18.6S2983.5,53.6,2973.2,53.6z     M2973.2,21.8c-6.4,0-11.6,5.1-11.6,13.3s5.2,13.3,11.6,13.3s11.6-5.1,11.6-13.3C2984.8,26.8,2979.6,21.8,2973.2,21.8z"></path>			<path class="st0" d="M3014.4,53.6c-10.3,0-18.3-7.8-18.3-18.5s8-18.6,18.3-18.6s18.3,7.8,18.3,18.6S3024.7,53.6,3014.4,53.6z     M3014.4,21.8c-6.4,0-11.6,5.1-11.6,13.3s5.2,13.3,11.6,13.3s11.6-5.1,11.6-13.3C3026,26.8,3020.8,21.8,3014.4,21.8z"></path>			<path class="st0" d="M3039.3,17.6h15.7c8.5,0,16.1,5.4,16.1,17.5s-7.6,17.5-16.1,17.5h-15.7V17.6z M3045.4,47.5h6.4    c7.9,0,12.5-4.3,12.5-12.4c0.1-8.1-4.6-12.4-12.5-12.4h-6.4V47.5z"></path>			<path class="st0" d="M3077.8,52.5v-35h6.2v35H3077.8z"></path>			<path class="st0" d="M3092.3,52.5v-35h22.5v5.1h-16.4v9.1h14.1v5.1h-14.1v10.6h16.7v5L3092.3,52.5L3092.3,52.5z"></path>			<path class="st0" d="M3136.7,17.6h15.7c8.5,0,16.1,5.4,16.1,17.5s-7.6,17.5-16.1,17.5h-15.7V17.6z M3142.9,47.5h6.4    c7.9,0,12.5-4.3,12.5-12.4c0.1-8.1-4.6-12.4-12.5-12.4h-6.4V47.5z"></path>			<path class="st0" d="M3174.9,52.5v-35h22.5v5.1H3181v9.1h14.1v5.1H3181v10.6h16.7v5L3174.9,52.5L3174.9,52.5z"></path>			<path class="st0" d="M3210.8,47.5h16.6v5h-22.8v-35h6.2V47.5L3210.8,47.5z"></path>			<path class="st0" d="M3233,52.5v-35h6.2v35H3233z"></path>			<path class="st0" d="M3257,52.5l-13.7-35h6.7l10.2,26.5l9.7-26.5h6.7l-13.2,35H3257z"></path>			<path class="st0" d="M3280.6,52.5v-35h22.5v5.1h-16.4v9.1h14.1v5.1h-14.1v10.6h16.7v5L3280.6,52.5L3280.6,52.5z"></path>			<path class="st0" d="M3309.9,52.5v-35h15.5c6.1,0,10.4,2.7,10.4,9.4c0,5.2-2.9,7.3-7.3,8.1v0.1c4.8,0.2,6.6,2.7,6.6,7.3v5.3    c0,2,0.6,3.4,2,4.8h-7.6c-1.1-1.5-0.9-3.4-0.9-4.6v-4.4c0.1-5-0.4-5.5-6.1-5.5h-6.6v14.6L3309.9,52.5L3309.9,52.5z M3316.1,32.7    h6.7c4.3,0,6.6-1.9,6.6-4.8c0-3.1-2.3-4.9-5.5-4.9h-7.8V32.7L3316.1,32.7z"></path>			<path class="st0" d="M3351,39.8l-12.7-22.3h7.1l8.9,16.2l8.5-16.2h7.1l-12.7,22.3v12.7h-6.2L3351,39.8L3351,39.8z"></path>			<path class="st0" d="M3388.1,17.6h22.5v5.1h-16.4v9.1h14.1v5.1h-14.1v15.6h-6.2L3388.1,17.6L3388.1,17.6z"></path>			<path class="st0" d="M3432.1,53.6c-10.3,0-18.3-7.8-18.3-18.5s8-18.6,18.3-18.6s18.3,7.8,18.3,18.6S3442.4,53.6,3432.1,53.6z     M3432.1,21.8c-6.4,0-11.6,5.1-11.6,13.3s5.2,13.3,11.6,13.3c6.4,0,11.6-5.1,11.6-13.3C3443.7,26.8,3438.5,21.8,3432.1,21.8z"></path>			<path class="st0" d="M3473.3,53.6c-10.3,0-18.3-7.8-18.3-18.5s8-18.6,18.3-18.6s18.3,7.8,18.3,18.6S3483.6,53.6,3473.3,53.6z     M3473.3,21.8c-6.4,0-11.6,5.1-11.6,13.3s5.2,13.3,11.6,13.3c6.4,0,11.6-5.1,11.6-13.3C3484.9,26.8,3479.7,21.8,3473.3,21.8z"></path>			<path class="st0" d="M3498.1,17.6h15.7c8.5,0,16.1,5.4,16.1,17.5s-7.6,17.5-16.1,17.5h-15.7V17.6z M3504.3,47.5h6.4    c7.9,0,12.5-4.3,12.5-12.4c0.1-8.1-4.6-12.4-12.5-12.4h-6.4V47.5z"></path>		</g>		<g>			<g>				<g>					<path class="st0" d="M3623.4,20.9c-2.2-2.2-5.3-3.3-9.2-3.3c-3.3,0-6.6,1.1-9.4,3.1c-2.7,2-4.7,4.6-5.6,7.6      c-4.5,1.1-9.2,2.2-14.1,2.2c-10.9,0-14.2-5.9-18.5-2.6c-4.2,3.2,0.3,11.3,4.5,15.4c7.6,7.2,14.6,9.3,23.2,9.3      c9.9,0.3,19-4.2,23.8-10.3c0.6-0.5,1.3-1,1.9-1.5c4.1-3.6,6.4-8,6.4-12.2C3626.4,25.5,3625.4,22.8,3623.4,20.9z M3618.4,39      c-3.3,2.9-7.4,4.7-10.6,4.7c-2,0-3.2-0.5-3.9-1.1c0.6-0.3,1.2-0.6,1.8-0.8c4-2.2,7.1-5.2,9-8.9c0.3-0.6,0.1-1.3-0.6-1.6      c-0.6-0.3-1.3-0.1-1.6,0.6c-2,4.1-6,7.4-10.7,9.2c-0.1,0-0.2,0.1-0.3,0.1c-2.5,0.9-5.2,1.5-8,1.5c-1.8,0-7.6-0.3-7.6-3.7      c0-0.7,0.4-2.4,3.4-2.4c2.2,0,4.9-0.1,7.1-1.1c2.5-1,4.1-3.1,5-5.9c1.6-5.3,7.1-9.4,12.9-9.4c7.2,0,9.8,4.4,9.8,8.5      C3624,32.1,3622,35.9,3618.4,39z"></path>				</g>			</g>		</g>		<g>			<path class="st0" d="M3661.4,17.6h22.5v5.1h-16.4v9.1h14.1v5.1h-14.1v15.6h-6.2L3661.4,17.6L3661.4,17.6z"></path>			<path class="st0" d="M3705.5,53.6c-10.3,0-18.3-7.8-18.3-18.5s8-18.6,18.3-18.6s18.3,7.8,18.3,18.6S3715.8,53.6,3705.5,53.6z     M3705.5,21.8c-6.4,0-11.6,5.1-11.6,13.3s5.2,13.3,11.6,13.3s11.6-5.1,11.6-13.3S3712,21.8,3705.5,21.8z"></path>			<path class="st0" d="M3746.7,53.6c-10.3,0-18.3-7.8-18.3-18.5s8-18.6,18.3-18.6s18.3,7.8,18.3,18.6S3757,53.6,3746.7,53.6z     M3746.7,21.8c-6.4,0-11.6,5.1-11.6,13.3s5.2,13.3,11.6,13.3s11.6-5.1,11.6-13.3S3753.1,21.8,3746.7,21.8z"></path>			<path class="st0" d="M3771.5,17.6h15.7c8.5,0,16.1,5.4,16.1,17.5s-7.6,17.5-16.1,17.5h-15.7V17.6z M3777.7,47.5h6.4    c7.9,0,12.5-4.3,12.5-12.4c0.1-8.1-4.6-12.4-12.5-12.4h-6.4V47.5z"></path>			<path class="st0" d="M3810,52.5v-35h6.2v35H3810z"></path>			<path class="st0" d="M3824.6,52.5v-35h22.5v5.1h-16.4v9.1h14.1v5.1h-14.1v10.6h16.7v5L3824.6,52.5L3824.6,52.5z"></path>			<path class="st0" d="M3869,17.6h15.7c8.5,0,16.1,5.4,16.1,17.5s-7.6,17.5-16.1,17.5H3869V17.6z M3875.2,47.5h6.4    c7.9,0,12.5-4.3,12.5-12.4c0.1-8.1-4.6-12.4-12.5-12.4h-6.4V47.5z"></path>			<path class="st0" d="M3907.2,52.5v-35h22.5v5.1h-16.4v9.1h14.1v5.1h-14.1v10.6h16.7v5L3907.2,52.5L3907.2,52.5z"></path>			<path class="st0" d="M3943,47.5h16.6v5h-22.8v-35h6.2V47.5L3943,47.5z"></path>			<path class="st0" d="M3965.4,52.5v-35h6.2v35H3965.4z"></path>			<path class="st0" d="M3989.3,52.5l-13.7-35h6.7l10.2,26.5l9.7-26.5h6.7l-13.2,35H3989.3z"></path>			<path class="st0" d="M4012.9,52.5v-35h22.5v5.1H4019v9.1h14.1v5.1H4019v10.6h16.7v5L4012.9,52.5L4012.9,52.5z"></path>			<path class="st0" d="M4042.2,52.5v-35h15.5c6.1,0,10.4,2.7,10.4,9.4c0,5.2-2.9,7.3-7.3,8.1v0.1c4.8,0.2,6.7,2.7,6.7,7.3v5.3    c0,2,0.6,3.4,2,4.8h-7.6c-1.1-1.5-0.9-3.4-0.9-4.6v-4.4c0.1-5-0.4-5.5-6.1-5.5h-6.6v14.6L4042.2,52.5L4042.2,52.5z M4048.4,32.7    h6.7c4.3,0,6.6-1.9,6.6-4.8c0-3.1-2.3-4.9-5.5-4.9h-7.8V32.7L4048.4,32.7z"></path>			<path class="st0" d="M4083.4,39.8l-12.8-22.3h7.1l8.9,16.2l8.5-16.2h7.1l-12.5,22.3v12.7h-6.2L4083.4,39.8L4083.4,39.8z"></path>			<path class="st0" d="M4120.3,17.6h22.5v5.1h-16.4v9.1h14.1v5.1h-14.1v15.6h-6.2V17.6H4120.3z"></path>			<path class="st0" d="M4164.4,53.6c-10.3,0-18.3-7.8-18.3-18.5s8-18.6,18.3-18.6s18.3,7.8,18.3,18.6S4174.7,53.6,4164.4,53.6z     M4164.4,21.8c-6.4,0-11.6,5.1-11.6,13.3s5.2,13.3,11.6,13.3s11.6-5.1,11.6-13.3C4176,26.8,4170.8,21.8,4164.4,21.8z"></path>			<path class="st0" d="M4205.6,53.6c-10.3,0-18.3-7.8-18.3-18.5s8-18.6,18.3-18.6s18.3,7.8,18.3,18.6S4215.8,53.6,4205.6,53.6z     M4205.6,21.8c-6.4,0-11.6,5.1-11.6,13.3s5.2,13.3,11.6,13.3s11.6-5.1,11.6-13.3S4212,21.8,4205.6,21.8z"></path>			<path class="st0" d="M4230.4,17.6h15.7c8.5,0,16.1,5.4,16.1,17.5s-7.6,17.5-16.1,17.5h-15.7V17.6z M4236.6,47.5h6.4    c7.9,0,12.5-4.3,12.5-12.4c0.1-8.1-4.6-12.4-12.5-12.4h-6.4V47.5z"></path>		</g>		<g>			<g>				<g>					<path class="st0" d="M4355.7,20.9c-2.2-2.2-5.3-3.3-9.2-3.3c-3.3,0-6.6,1.1-9.4,3.1c-2.7,2-4.7,4.6-5.6,7.6      c-4.5,1.1-9.2,2.2-14.1,2.2c-10.9,0-14.2-5.9-18.5-2.6c-4.2,3.2,0.4,11.3,4.6,15.4c7.6,7.2,14.6,9.3,23.2,9.3      c9.9,0.3,19-4.2,23.8-10.3c0.6-0.5,1.3-1,1.9-1.5c4.1-3.6,6.4-8,6.4-12.2C4358.8,25.5,4357.6,22.8,4355.7,20.9z M4350.8,39      c-3.3,2.9-7.4,4.7-10.6,4.7c-2,0-3.1-0.5-3.9-1.1c0.6-0.3,1.2-0.6,1.8-0.8c4-2.2,7.1-5.2,9-8.9c0.3-0.6,0.1-1.3-0.6-1.6      c-0.6-0.3-1.3-0.1-1.6,0.6c-2,4.1-6,7.4-10.7,9.2c-0.1,0-0.2,0.1-0.3,0.1c-2.5,0.9-5.2,1.5-8.1,1.5c-1.8,0-7.6-0.3-7.6-3.7      c0-0.7,0.3-2.4,3.4-2.4c2.2,0,4.9-0.1,7.1-1.1c2.4-1,4.1-3.1,5-5.9c1.6-5.3,7.1-9.4,12.9-9.4c7.2,0,9.8,4.4,9.8,8.5      C4356.3,32.1,4354.3,35.9,4350.8,39z"></path>				</g>			</g>		</g>		<g>			<path class="st0" d="M4393.8,17.6h22.5v5.1h-16.4v9.1h14.1v5.1h-14.1v15.8h-6.2L4393.8,17.6L4393.8,17.6z"></path>			<path class="st0" d="M4437.8,53.6c-10.3,0-18.3-7.8-18.3-18.5s8-18.6,18.3-18.6s18.3,7.8,18.3,18.6S4448.1,53.6,4437.8,53.6z     M4437.8,21.8c-6.4,0-11.6,5.1-11.6,13.3s5.2,13.3,11.6,13.3s11.6-5.1,11.6-13.3S4444.2,21.8,4437.8,21.8z"></path>			<path class="st0" d="M4479,53.6c-10.3,0-18.3-7.8-18.3-18.5s8-18.6,18.3-18.6s18.3,7.8,18.3,18.6S4489.2,53.6,4479,53.6z     M4479,21.8c-6.4,0-11.6,5.1-11.6,13.3s5.2,13.3,11.6,13.3s11.6-5.1,11.6-13.3S4485.4,21.8,4479,21.8z"></path>			<path class="st0" d="M4503.8,17.6h15.7c8.5,0,16.1,5.4,16.1,17.5s-7.6,17.5-16.1,17.5h-15.7V17.6z M4510,47.5h6.4    c7.9,0,12.5-4.3,12.5-12.4c0.1-8.1-4.6-12.4-12.5-12.4h-6.4V47.5z"></path>			<path class="st0" d="M4542.3,52.6v-35h6.2v35H4542.3z"></path>			<path class="st0" d="M4556.9,52.6v-35h22.5v5.1H4563v9.1h14.1v5.1H4563v10.6h16.7v5.1H4556.9L4556.9,52.6z"></path>			<path class="st0" d="M4601.3,17.6h15.7c8.5,0,16.1,5.4,16.1,17.5s-7.6,17.5-16.1,17.5h-15.7V17.6z M4607.5,47.5h6.4    c7.9,0,12.5-4.3,12.5-12.4c0.1-8.1-4.6-12.4-12.5-12.4h-6.4V47.5z"></path>			<path class="st0" d="M4639.5,52.6v-35h22.5v5.1h-16.4v9.1h14.1v5.1h-14.1v10.6h16.7v5.1H4639.5L4639.5,52.6z"></path>			<path class="st0" d="M4675.3,47.5h16.6v5.1h-22.8v-35h6.2L4675.3,47.5L4675.3,47.5z"></path>			<path class="st0" d="M4697.6,52.6v-35h6.2v35C4703.8,52.6,4697.6,52.6,4697.6,52.6z"></path>			<path class="st0" d="M4721.6,52.6l-13.7-35h6.7l10.2,26.6l9.7-26.5h6.7l-13.2,35C4728.1,52.6,4721.6,52.6,4721.6,52.6z"></path>			<path class="st0" d="M4745.2,52.6v-35h22.5v5.1h-16.4v9.1h14.1v5.1h-14.1v10.6h16.7v5.1H4745.2L4745.2,52.6z"></path>			<path class="st0" d="M4774.5,52.6v-35h15.5c6.1,0,10.4,2.7,10.4,9.4c0,5.2-2.9,7.3-7.3,8.1v0.1c4.8,0.2,6.6,2.7,6.6,7.3v5.3    c0,2,0.6,3.4,2,4.8h-7.6c-1-1.5-0.9-3.4-0.9-4.6v-4.5c0.1-5-0.4-5.5-6.1-5.5h-6.6v14.6H4774.5L4774.5,52.6z M4780.7,32.7h6.7    c4.3,0,6.6-1.9,6.6-4.8c0-3.1-2.3-4.9-5.5-4.9h-7.8L4780.7,32.7L4780.7,32.7z"></path>			<path class="st0" d="M4815.6,39.9l-12.8-22.3h7.1l8.9,16.2l8.5-16.2h7.1l-12.6,22.3v12.7h-6.2V39.9L4815.6,39.9z"></path>			<path class="st0" d="M4852.6,17.6h22.5v5.1h-16.4v9.1h14.1v5.1h-14.1v15.8h-6.2L4852.6,17.6L4852.6,17.6z"></path>			<path class="st0" d="M4896.7,53.6c-10.3,0-18.3-7.8-18.3-18.5s8-18.6,18.3-18.6s18.3,7.8,18.3,18.6S4907,53.6,4896.7,53.6z     M4896.7,21.8c-6.4,0-11.6,5.1-11.6,13.3s5.2,13.3,11.6,13.3s11.6-5.1,11.6-13.3S4903.1,21.8,4896.7,21.8z"></path>			<path class="st0" d="M4937.9,53.6c-10.3,0-18.3-7.8-18.3-18.5s8-18.6,18.3-18.6s18.3,7.8,18.3,18.6S4948.2,53.6,4937.9,53.6z     M4937.9,21.8c-6.4,0-11.6,5.1-11.6,13.3s5.2,13.3,11.6,13.3s11.6-5.1,11.6-13.3S4944.2,21.8,4937.9,21.8z"></path>			<path class="st0" d="M4962.7,17.6h15.7c8.5,0,16.1,5.4,16.1,17.5s-7.6,17.5-16.1,17.5h-15.7V17.6z M4968.9,47.5h6.4    c7.9,0,12.5-4.3,12.5-12.4c0.1-8.1-4.6-12.4-12.5-12.4h-6.4V47.5z"></path>		</g>		<g>			<g>				<g>					<path class="st0" d="M5088,20.9c-2.2-2.2-5.3-3.3-9.2-3.3c-3.3,0-6.6,1.1-9.5,3.1c-2.7,2-4.7,4.6-5.6,7.6      c-4.5,1.1-9.2,2.2-14.1,2.2c-10.9,0-14.2-5.9-18.5-2.6c-4.2,3.2,0.4,11.3,4.5,15.4c7.6,7.2,14.6,9.3,23.2,9.3      c9.9,0.3,19-4.2,23.8-10.3c0.6-0.5,1.3-1,1.9-1.5c4.1-3.6,6.4-8,6.4-12.2C5091,25.5,5090,22.8,5088,20.9z M5083,39.1      c-3.3,2.9-7.3,4.7-10.6,4.7c-2,0-3.1-0.5-3.9-1.1c0.6-0.3,1.2-0.6,1.8-0.8c4-2.2,7.1-5.2,9-8.9c0.3-0.6,0.1-1.3-0.6-1.6      c-0.6-0.3-1.3-0.1-1.6,0.6c-2,4.1-6,7.4-10.7,9.2c-0.1,0-0.2,0.1-0.3,0.1c-2.5,0.9-5.2,1.5-8.1,1.5c-1.8,0-7.6-0.3-7.6-3.7      c0-0.7,0.4-2.4,3.4-2.4c2.2,0,4.9-0.1,7.1-1.1c2.4-1,4.1-3.1,5-5.9c1.6-5.3,7.1-9.4,12.9-9.4c7.2,0,9.8,4.4,9.8,8.5      C5088.6,32.1,5086.6,35.9,5083,39.1z"></path>				</g>			</g>		</g>		<g>			<path class="st0" d="M5126,17.6h22.5v5.1h-16.4v9.1h14.1v5.1h-14.1v15.8h-6.2L5126,17.6L5126,17.6z"></path>			<path class="st0" d="M5170.1,53.6c-10.3,0-18.3-7.8-18.3-18.5s8-18.6,18.3-18.6s18.3,7.8,18.3,18.6S5180.4,53.6,5170.1,53.6z     M5170.1,21.8c-6.4,0-11.6,5.1-11.6,13.3s5.2,13.3,11.6,13.3s11.6-5.1,11.6-13.3S5176.5,21.8,5170.1,21.8z"></path>			<path class="st0" d="M5211.2,53.6c-10.3,0-18.3-7.8-18.3-18.5s8-18.6,18.3-18.6s18.3,7.8,18.3,18.6S5221.6,53.6,5211.2,53.6z     M5211.2,21.8c-6.4,0-11.6,5.1-11.6,13.3s5.2,13.3,11.6,13.3s11.6-5.1,11.6-13.3S5217.7,21.8,5211.2,21.8z"></path>			<path class="st0" d="M5236.1,17.6h15.7c8.5,0,16.1,5.4,16.1,17.5s-7.6,17.5-16.1,17.5h-15.7V17.6z M5242.3,47.5h6.4    c7.9,0,12.5-4.3,12.5-12.4c0.1-8.1-4.6-12.4-12.5-12.4h-6.4V47.5z"></path>			<path class="st0" d="M5274.6,52.6v-35h6.2v35H5274.6z"></path>			<path class="st0" d="M5289.2,52.6v-35h22.5v5.1h-16.4v9.1h14.1v5.1h-14.1v10.6h16.7v5.1H5289.2L5289.2,52.6z"></path>			<path class="st0" d="M5333.6,17.6h15.7c8.5,0,16.1,5.4,16.1,17.5s-7.6,17.5-16.1,17.5h-15.7V17.6z M5339.7,47.5h6.4    c7.9,0,12.5-4.3,12.5-12.4c0.1-8.1-4.6-12.4-12.5-12.4h-6.4V47.5z"></path>			<path class="st0" d="M5371.8,52.6v-35h22.5v5.1H5378v9.1h14.1v5.1H5378v10.6h16.7v5.1H5371.8L5371.8,52.6z"></path>			<path class="st0" d="M5407.6,47.5h16.6v5.1h-22.8v-35h6.2L5407.6,47.5L5407.6,47.5z"></path>			<path class="st0" d="M5429.9,52.6v-35h6.2v35H5429.9z"></path>			<path class="st0" d="M5453.9,52.6l-13.6-35h6.7l10.2,26.5l9.7-26.5h6.7l-13.2,35H5453.9z"></path>			<path class="st0" d="M5477.4,52.6v-35h22.5v5.1h-16.4v9.1h14.1v5.1h-14.1v10.6h16.7v5.1H5477.4L5477.4,52.6z"></path>			<path class="st0" d="M5506.8,52.6v-35h15.5c6.1,0,10.4,2.7,10.4,9.4c0,5.2-2.9,7.3-7.3,8.1v0.1c4.8,0.2,6.6,2.7,6.6,7.3v5.3    c0,2,0.6,3.4,2,4.8h-7.6c-1-1.5-0.9-3.4-0.9-4.6v-4.5c0.1-5-0.4-5.5-6.1-5.5h-6.6v14.6H5506.8L5506.8,52.6z M5513,32.7h6.7    c4.3,0,6.6-1.9,6.6-4.8c0-3.1-2.3-4.9-5.5-4.9h-7.8L5513,32.7L5513,32.7z"></path>			<path class="st0" d="M5547.9,39.9l-12.8-22.3h7.1l8.9,16.2l8.5-16.2h7.1l-12.6,22.3v12.7h-6.2V39.9L5547.9,39.9z"></path>			<path class="st0" d="M5585,17.6h22.5v5.1h-16.4v9.1h14.1v5.1h-14.1v15.8h-6.2V17.6H5585z"></path>			<path class="st0" d="M5629,53.6c-10.3,0-18.3-7.8-18.3-18.5s8-18.6,18.3-18.6s18.3,7.8,18.3,18.6S5639.3,53.6,5629,53.6z     M5629,21.8c-6.4,0-11.6,5.1-11.6,13.3s5.2,13.3,11.6,13.3s11.6-5.1,11.6-13.3S5635.4,21.8,5629,21.8z"></path>			<path class="st0" d="M5670.1,53.6c-10.3,0-18.3-7.8-18.3-18.5s8-18.6,18.3-18.6s18.3,7.8,18.3,18.6S5680.4,53.6,5670.1,53.6z     M5670.1,21.8c-6.4,0-11.6,5.1-11.6,13.3s5.2,13.3,11.6,13.3s11.6-5.1,11.6-13.3S5676.6,21.8,5670.1,21.8z"></path>			<path class="st0" d="M5695,17.6h15.7c8.5,0,16.1,5.4,16.1,17.5s-7.6,17.5-16.1,17.5H5695V17.6z M5701.1,47.5h6.4    c7.9,0,12.5-4.3,12.5-12.4c0.1-8.1-4.6-12.4-12.5-12.4h-6.4V47.5z"></path>		</g>		<g>			<g>				<g>					<path class="st0" d="M5820.3,20.9c-2.2-2.2-5.3-3.3-9.2-3.3c-3.3,0-6.7,1.1-9.5,3.1c-2.7,2-4.7,4.6-5.6,7.6      c-4.5,1.1-9.2,2.2-14.1,2.2c-10.9,0-14.2-5.9-18.5-2.6c-4.2,3.2,0.4,11.3,4.5,15.4c7.6,7.2,14.6,9.3,23.2,9.3      c9.9,0.3,19-4.2,23.8-10.3c0.6-0.5,1.3-1,1.9-1.5c4.1-3.6,6.4-8,6.4-12.2C5823.3,25.5,5822.2,22.8,5820.3,20.9z M5815.3,39.1      c-3.3,2.9-7.4,4.7-10.6,4.7c-2,0-3.1-0.5-3.9-1.1c0.6-0.3,1.2-0.6,1.8-0.8c4-2.2,7.1-5.2,9-8.9c0.3-0.6,0.1-1.3-0.6-1.6      c-0.6-0.3-1.3-0.1-1.6,0.6c-2,4.1-6,7.4-10.7,9.2c-0.1,0-0.2,0.1-0.3,0.1c-2.5,0.9-5.2,1.5-8.1,1.5c-1.8,0-7.6-0.3-7.6-3.7      c0-0.7,0.4-2.4,3.4-2.4c2.2,0,4.9-0.1,7.1-1.1c2.4-1,4.1-3.1,5-5.9c1.6-5.3,7.1-9.4,12.9-9.4c7.2,0,9.8,4.4,9.8,8.5      C5820.9,32.1,5818.9,35.9,5815.3,39.1z"></path>				</g>			</g>		</g>		<g>			<path class="st0" d="M5858.3,17.6h22.5v5.1h-16.4v9.1h14.1V37h-14.1v15.8h-6.2V17.6H5858.3z"></path>			<path class="st0" d="M5902.4,53.7c-10.3,0-18.3-7.8-18.3-18.5s8-18.6,18.3-18.6s18.3,7.8,18.3,18.6S5912.7,53.7,5902.4,53.7z     M5902.4,21.8c-6.4,0-11.6,5.1-11.6,13.3s5.2,13.3,11.6,13.3s11.6-5.1,11.6-13.3S5908.8,21.8,5902.4,21.8z"></path>			<path class="st0" d="M5943.6,53.7c-10.3,0-18.3-7.8-18.3-18.5s8-18.6,18.3-18.6s18.3,7.8,18.3,18.6S5953.9,53.7,5943.6,53.7z     M5943.6,21.8c-6.4,0-11.6,5.1-11.6,13.3s5.2,13.3,11.6,13.3s11.6-5.1,11.6-13.3C5955.2,27,5950,21.8,5943.6,21.8z"></path>			<path class="st0" d="M5968.4,17.6h15.7c8.5,0,16.1,5.4,16.1,17.5s-7.6,17.5-16.1,17.5h-15.7V17.6z M5974.6,47.5h6.4    c7.9,0,12.5-4.3,12.5-12.4c0.1-8.1-4.6-12.4-12.5-12.4h-6.4V47.5z"></path>			<path class="st0" d="M6006.9,52.6v-35h6.2v35H6006.9z"></path>			<path class="st0" d="M6021.5,52.6v-35h22.5v5.1h-16.4v9.1h14.1V37h-14.1v10.6h16.7v5.1L6021.5,52.6L6021.5,52.6z"></path>			<path class="st0" d="M6065.9,17.6h15.7c8.5,0,16.1,5.4,16.1,17.5s-7.6,17.5-16.1,17.5h-15.7V17.6z M6072,47.5h6.4    c7.9,0,12.5-4.3,12.5-12.4c0.1-8.1-4.6-12.4-12.5-12.4h-6.4V47.5z"></path>			<path class="st0" d="M6104.1,52.6v-35h22.5v5.1h-16.3v9.1h14.1V37h-14.1v10.6h16.7v5.1L6104.1,52.6L6104.1,52.6z"></path>			<path class="st0" d="M6139.9,47.5h16.6v5.1h-22.8v-35h6.2L6139.9,47.5L6139.9,47.5z"></path>			<path class="st0" d="M6162.2,52.6v-35h6.2v35H6162.2z"></path>			<path class="st0" d="M6186.2,52.6l-13.6-35h6.7l10.2,26.5l9.7-26.5h6.7l-13.2,35H6186.2z"></path>			<path class="st0" d="M6209.8,52.6v-35h22.5v5.1h-16.4v9.1h14.1V37h-14.1v10.6h16.7v5.1L6209.8,52.6L6209.8,52.6z"></path>			<path class="st0" d="M6239.1,52.6v-35h15.5c6.1,0,10.4,2.7,10.4,9.4c0,5.2-2.9,7.3-7.3,8.1v0.1c4.8,0.2,6.6,2.7,6.6,7.3v5.3    c0,2,0.6,3.4,2,4.8h-7.6c-1-1.5-0.9-3.4-0.9-4.6v-4.5c0.1-5-0.4-5.5-6.1-5.5h-6.6v14.6H6239.1L6239.1,52.6z M6245.3,32.8h6.7    c4.3,0,6.6-1.9,6.6-4.8c0-3.1-2.3-4.9-5.5-4.9h-7.8L6245.3,32.8L6245.3,32.8z"></path>			<path class="st0" d="M6280.2,39.9l-12.8-22.3h7.1l8.9,16.2l8.5-16.2h7.1l-12.5,22.3v12.7h-6.2L6280.2,39.9L6280.2,39.9z"></path>			<path class="st0" d="M6317.2,17.6h22.5v5.1h-16.4v9.1h14.1V37h-14.1v15.8h-6.2V17.6H6317.2z"></path>			<path class="st0" d="M6361.2,53.7c-10.3,0-18.3-7.8-18.3-18.5s8-18.6,18.3-18.6s18.3,7.8,18.3,18.6S6371.5,53.7,6361.2,53.7z     M6361.2,21.8c-6.4,0-11.6,5.1-11.6,13.3s5.2,13.3,11.6,13.3s11.6-5.1,11.6-13.3S6367.7,21.8,6361.2,21.8z"></path>			<path class="st0" d="M6402.4,53.7c-10.3,0-18.3-7.8-18.3-18.5s8-18.6,18.3-18.6s18.3,7.8,18.3,18.6S6412.7,53.7,6402.4,53.7z     M6402.4,21.8c-6.4,0-11.6,5.1-11.6,13.3s5.2,13.3,11.6,13.3s11.6-5.1,11.6-13.3S6408.9,21.8,6402.4,21.8z"></path>			<path class="st0" d="M6427.3,17.6h15.7c8.5,0,16.1,5.4,16.1,17.5s-7.6,17.5-16.1,17.5h-15.7V17.6z M6433.5,47.5h6.4    c7.9,0,12.5-4.3,12.5-12.4c0.1-8.1-4.6-12.4-12.5-12.4h-6.4V47.5z"></path>		</g>		<g>			<g>				<g>					<path class="st0" d="M6552.6,20.9c-2.2-2.2-5.3-3.3-9.2-3.3c-3.3,0-6.6,1.1-9.5,3.1c-2.7,2-4.7,4.6-5.6,7.6      c-4.5,1.1-9.2,2.2-14.1,2.2c-10.9,0-14.2-5.9-18.5-2.6c-4.2,3.2,0.4,11.3,4.6,15.4c7.6,7.2,14.6,9.3,23.2,9.3      c9.9,0.3,19-4.2,23.8-10.3c0.6-0.5,1.3-1,1.9-1.5c4.1-3.6,6.4-8,6.4-12.2C6555.6,25.5,6554.5,22.9,6552.6,20.9z M6547.7,39.1      c-3.3,2.9-7.3,4.7-10.6,4.7c-2,0-3.2-0.5-3.9-1.1c0.6-0.3,1.2-0.6,1.8-0.8c4-2.2,7.1-5.2,9-8.9c0.3-0.6,0.1-1.3-0.6-1.6      c-0.6-0.3-1.3-0.1-1.6,0.6c-2,4.1-6,7.4-10.7,9.2c-0.1,0-0.2,0.1-0.3,0.1c-2.5,0.9-5.2,1.5-8,1.5c-1.8,0-7.6-0.3-7.6-3.7      c0-0.7,0.4-2.4,3.4-2.4c2.2,0,4.9-0.1,7.1-1.1c2.5-1,4.1-3.1,5-5.9c1.6-5.3,7.1-9.4,12.9-9.4c7.2,0,9.8,4.4,9.8,8.5      C6553.2,32.1,6551.2,36,6547.7,39.1z"></path>				</g>			</g>		</g>		<g>			<path class="st0" d="M6590.6,17.6h22.5v5.1h-16.4v9.1h14.1V37h-14.1v15.8h-6.2V17.6H6590.6z"></path>			<path class="st0" d="M6634.7,53.7c-10.3,0-18.3-7.8-18.3-18.5s8-18.6,18.3-18.6s18.3,7.8,18.3,18.6S6645,53.7,6634.7,53.7z     M6634.7,21.8c-6.4,0-11.6,5.1-11.6,13.3s5.2,13.3,11.6,13.3s11.6-5.1,11.6-13.3C6646.3,27,6641.1,21.8,6634.7,21.8z"></path>			<path class="st0" d="M6675.8,53.7c-10.3,0-18.3-7.8-18.3-18.5s8-18.6,18.3-18.6s18.3,7.8,18.3,18.6S6686.1,53.7,6675.8,53.7z     M6675.8,21.8c-6.4,0-11.6,5.1-11.6,13.3s5.2,13.3,11.6,13.3s11.6-5.1,11.6-13.3S6682.3,21.8,6675.8,21.8z"></path>			<path class="st0" d="M6700.7,17.6h15.7c8.5,0,16.1,5.4,16.1,17.5s-7.6,17.5-16.1,17.5h-15.7V17.6z M6706.8,47.5h6.4    c7.9,0,12.5-4.3,12.5-12.4c0.1-8.1-4.6-12.4-12.5-12.4h-6.4V47.5z"></path>			<path class="st0" d="M6739.2,52.6v-35h6.2v35H6739.2z"></path>			<path class="st0" d="M6753.7,52.6v-35h22.5v5.1h-16.4v9.1h14.1V37h-14.1v10.6h16.7v5.1L6753.7,52.6L6753.7,52.6z"></path>			<path class="st0" d="M6798.1,17.6h15.7c8.5,0,16.1,5.4,16.1,17.5s-7.6,17.5-16.1,17.5h-15.7V17.6z M6804.4,47.5h6.4    c7.9,0,12.5-4.3,12.5-12.4c0.1-8.1-4.6-12.4-12.5-12.4h-6.4V47.5z"></path>			<path class="st0" d="M6836.3,52.6v-35h22.5v5.1h-16.4v9.1h14.1V37h-14.1v10.6h16.7v5.1L6836.3,52.6L6836.3,52.6z"></path>			<path class="st0" d="M6872.2,47.5h16.6v5.1H6866v-35h6.2V47.5L6872.2,47.5z"></path>			<path class="st0" d="M6894.5,52.6v-35h6.2v35H6894.5z"></path>			<path class="st0" d="M6918.5,52.6l-13.7-35h6.7l10.2,26.5l9.7-26.5h6.7l-13.2,35H6918.5z"></path>			<path class="st0" d="M6942,52.6v-35h22.5v5.1h-16.4v9.1h14.1V37h-14.1v10.6h16.7v5.1L6942,52.6L6942,52.6z"></path>			<path class="st0" d="M6971.4,52.6v-35h15.5c6.1,0,10.4,2.7,10.4,9.4c0,5.2-2.9,7.3-7.3,8.1v0.1c4.8,0.2,6.7,2.7,6.7,7.3v5.3    c0,2,0.6,3.4,2,4.8h-7.6c-1.1-1.5-0.9-3.4-0.9-4.6v-4.5c0.1-5-0.4-5.5-6.1-5.5h-6.6v14.6H6971.4L6971.4,52.6z M6977.6,32.8h6.7    c4.3,0,6.6-1.9,6.6-4.8c0-3.1-2.3-4.9-5.5-4.9h-7.8L6977.6,32.8L6977.6,32.8z"></path>			<path class="st0" d="M7012.5,39.9l-12.8-22.3h7.1l8.9,16.2l8.5-16.2h7.1l-12.5,22.3v12.7h-6.2L7012.5,39.9L7012.5,39.9z"></path>			<path class="st0" d="M7049.5,17.6h22.5v5.1h-16.4v9.1h14.1V37h-14.1v15.8h-6.2V17.6H7049.5z"></path>			<path class="st0" d="M7093.6,53.7c-10.3,0-18.3-7.8-18.3-18.5s8-18.6,18.3-18.6s18.3,7.8,18.3,18.6S7103.9,53.7,7093.6,53.7z     M7093.6,21.8c-6.4,0-11.6,5.1-11.6,13.3s5.2,13.3,11.6,13.3s11.6-5.1,11.6-13.3S7100,21.8,7093.6,21.8z"></path>			<path class="st0" d="M7134.8,53.7c-10.3,0-18.3-7.8-18.3-18.5s8-18.6,18.3-18.6s18.3,7.8,18.3,18.6S7145,53.7,7134.8,53.7z     M7134.8,21.8c-6.4,0-11.6,5.1-11.6,13.3s5.2,13.3,11.6,13.3s11.6-5.1,11.6-13.3S7141.1,21.8,7134.8,21.8z"></path>			<path class="st0" d="M7159.6,17.6h15.7c8.5,0,16.1,5.4,16.1,17.5s-7.6,17.5-16.1,17.5h-15.7V17.6z M7165.8,47.5h6.4    c7.9,0,12.5-4.3,12.5-12.4c0.1-8.1-4.6-12.4-12.5-12.4h-6.4V47.5z"></path>		</g>		<g>			<g>				<g>					<path class="st0" d="M7284.9,20.9c-2.2-2.2-5.3-3.3-9.2-3.3c-3.3,0-6.7,1.1-9.5,3.1c-2.7,2-4.7,4.6-5.6,7.6      c-4.5,1.1-9.2,2.2-14.1,2.2c-10.9,0-14.2-5.9-18.5-2.6c-4.2,3.2,0.4,11.3,4.5,15.4c7.6,7.2,14.6,9.3,23.2,9.3      c9.9,0.3,19-4.2,23.8-10.3c0.6-0.5,1.3-1,1.9-1.5c4.1-3.6,6.4-8,6.4-12.2C7287.9,25.5,7286.9,22.9,7284.9,20.9z M7279.9,39.1      c-3.3,2.9-7.4,4.7-10.6,4.7c-2,0-3.1-0.5-3.9-1.1c0.6-0.3,1.2-0.6,1.8-0.8c4-2.2,7.1-5.2,9-8.9c0.3-0.6,0.1-1.3-0.6-1.6      s-1.3-0.1-1.6,0.6c-2,4.1-6,7.4-10.7,9.2c-0.1,0-0.2,0.1-0.3,0.1c-2.5,0.9-5.2,1.5-8,1.5c-1.8,0-7.6-0.3-7.6-3.7      c0-0.7,0.4-2.4,3.4-2.4c2.2,0,4.9-0.1,7.1-1.1c2.5-1,4.1-3.1,5-5.9c1.6-5.3,7.1-9.4,12.9-9.4c7.2,0,9.8,4.4,9.8,8.5      C7285.5,32.1,7283.4,36,7279.9,39.1z"></path>				</g>			</g>		</g>	</g></g></svg>