<svg xmlns="http://www.w3.org/2000/svg" id="Layer_1" data-name="Layer 1" viewBox="0 0 3437.89 2103.34"><defs><style>.cls-1{fill:#fff;}</style></defs><path class="cls-1" d="M3290.49,664.51a33.53,33.53,0,0,1-.4-5.11c-.12-10.3-1.61-20.46-3-30.63q-2.92-20.78-7.41-41.26C3262.69,510,3231.29,439.14,3183,376c-35.21-46-77.45-84.46-126-116-39.66-25.81-82.07-46-126.74-61.5a695.25,695.25,0,0,0-98.32-26.09c-16.27-3.1-32.61-5.75-49-7.83-13.59-1.72-27.23-3-40.89-4.15-12.83-1.05-25.66-1.41-38.5-1.87-2.82-.1-5.74.25-8.37-1.25h-48a31.92,31.92,0,0,1-4.14,1,65.14,65.14,0,0,1-6.84.35c-13.16,0-26.25,1.12-39.32,2.36q-18.33,1.74-36.56,4.39-20.76,3.06-41.34,7a781.9,781.9,0,0,0-86.23,21.85A846.06,846.06,0,0,0,2135,358.71c-68.63,58.41-126.33,126.14-172.28,203.74A734.83,734.83,0,0,0,1900,698.15c-.56,1.62-1.21,3.21-1.67,4.85-.52,1.91-1.95,2.73-3.61,3.28-1.08.37-2.2.6-3.3.88q-75.83,19.59-152.12,37.16c-33.1,7.56-66.25,14.88-99.58,21.34-22.41,4.34-44.79,8.86-67.24,13-18.52,3.38-37.13,6.33-55.72,9.32-16.91,2.72-33.82,5.4-50.77,7.8-15.26,2.16-30.57,3.94-45.87,5.82-12.47,1.53-24.94,3-37.42,4.41-8.23.9-16.48,1.55-24.73,2.29-9.67.88-19.34,1.72-29,2.59-1.14.1-2.28.27-3.41.34-12,.76-24,1.46-35.91,2.26-14.25,1-28.52,1.37-42.79,2-26.26,1.24-52.53,1.28-78.8,1.2-14.28,0-28.56-.23-42.82-1.13-3.14-.2-6.28-.29-9.42-.37-16.85-.46-33.65-1.7-50.44-3.14-9.38-.8-18.78-1.49-28.16-2.35-6.54-.59-13.07-1.31-19.59-2.09-6.8-.81-13.58-1.82-20.38-2.64-15-1.81-30-4.14-44.89-6.57q-40.14-6.54-79.78-15.6c-35.92-8.12-71.4-17.8-106.56-28.71-44.16-13.7-87.58-29.46-130.68-46.14-30.86-11.94-61.66-24-92.57-35.84-22.91-8.76-46.06-16.88-69.62-23.78A432,432,0,0,0,419,635.78a260.51,260.51,0,0,0-48.63-3.54A213.38,213.38,0,0,0,279,655.41a276.2,276.2,0,0,0-54.72,36.52c-32.82,28.12-54.65,63.24-66.08,104.85-11,40.13-11.47,81.61-6.46,122.31a495.78,495.78,0,0,0,10.89,57.7c10.32,42,25.13,82.37,42.66,121.81,21.26,47.81,46.28,93.61,74.12,137.89A1334.84,1334.84,0,0,0,443,1447.26q18,18.93,37.24,36.64c51.14,47.4,104.06,92.7,159.4,135.14,61.48,47.14,125.54,90.44,192.84,128.89,94.28,53.88,193.22,97,297.26,128.26q54.52,16.41,110.18,28.5,33.06,7.2,66.37,13c16.3,2.84,32.7,5.2,49.08,7.56,15.26,2.2,30.54,4.3,45.84,6.1,13.61,1.61,27.27,2.79,40.91,4.11,9.38.91,18.77,1.8,28.16,2.59,8.53.72,17.08,1.39,25.63,1.89,14.55.83,29.1,1.54,43.65,2.26,9.41.47,18.82,1.07,28.25,1.28,24,.53,48,.87,72,1.32,10.85.2,21.71.29,32.55.75,26.29,1.1,52.55.26,78.81-.92l11.13-.51c15.69-.76,31.39-1.39,47.07-2.33,10.26-.62,20.49-1.69,30.73-2.58,8.53-.75,17.07-1.51,25.6-2.33,6.25-.6,12.51-1.17,18.73-2,20.95-2.78,41.93-5.31,62.8-8.58q74.46-11.65,147.59-30.06a1614.51,1614.51,0,0,0,243.79-82.45c94.45-40.62,184.11-89.87,268.45-148.72A1308.75,1308.75,0,0,0,2779,1522.54a1101.9,1101.9,0,0,0,85.58-94.62,71.71,71.71,0,0,1,14.15-13.52,1180.64,1180.64,0,0,0,182.58-162.74c48.76-53.63,91.89-111.41,128.14-174.23,27.89-48.35,51.13-98.8,68.79-151.77a717.72,717.72,0,0,0,24.5-94.36c2.81-14.86,5-29.83,6.7-44.86.56-4.8.51-9.68.76-14.53.12-2.27.1-4.59,1.51-6.58V667.7A16.79,16.79,0,0,1,3290.49,664.51Zm-121,70.82a547.6,547.6,0,0,1-21,127.22c-14.66,51-35.64,99.28-61.6,145.47a854.27,854.27,0,0,1-91.43,131.2c-53,63-113,118.57-179,167.74A1056.84,1056.84,0,0,1,2641,1413.38a872.1,872.1,0,0,1-128.32,49.82,692.19,692.19,0,0,1-74,17.74q-21.06,3.81-42.38,6a493.13,493.13,0,0,1-61.59,2.79c-14.28-.34-28.51-1.33-42.73-2.83a353,353,0,0,1-57.15-10.74,254.37,254.37,0,0,1-61.46-25.59,187.71,187.71,0,0,1-24.66-17c-.78-.64-.77-.64-1.23-3,2.78-1.31,5.61-2.67,8.45-4a1279,1279,0,0,0,218.25-128.06,1116.41,1116.41,0,0,0,163.59-145.54c59.07-64.23,109.32-134.67,149.48-212.21,1.7-3.29,3.41-6.59,4.9-10a61.59,61.59,0,0,0-41.69-84.35c-27.39-7.13-54.71,5.84-68,28.09-1.31,2.21-2.49,4.49-3.66,6.78-27.86,54.34-61.74,104.68-100.72,151.63-50.41,60.71-107.77,114.08-171,161.27-73.78,55.08-153.32,100.12-238,136.27-8.92,3.81-17.94,7.38-26.92,11a112.68,112.68,0,0,1-14.48,5.24,27.77,27.77,0,0,0-4.83,1.72c-14,6.5-28.74,11.09-43.33,16A1183.25,1183.25,0,0,1,1856,1398.75c-22.29,4.92-44.71,9.23-67.28,12.74-16.37,2.54-32.72,5.09-49.2,6.81-13.91,1.44-27.8,3.13-41.74,4.32-12.23,1-24.51,1.61-36.77,2.27-9.13.5-18.26,1-27.39,1.2-23.43.49-46.84.52-70.25-.7-13.41-.69-26.81-1.44-40.2-2.45-8.53-.64-17.05-1.64-25.56-2.57-6.24-.69-12.48-1.47-18.7-2.28-39.43-5.15-78.24-13-116-25.8a336.83,336.83,0,0,1-54.91-23.81,220.89,220.89,0,0,1-35.42-24,159.4,159.4,0,0,1-28-30,127.9,127.9,0,0,1-23.12-59.19c-2-16.51-1.71-33,2.68-49.28a103.39,103.39,0,0,1,35.84-55c12.15-9.77,25.83-16.75,40.46-21.93a214,214,0,0,1,38.17-9.42,285.52,285.52,0,0,1,45.22-3.57c26.28.06,52.55-.63,78.82-1.39,8.28-.24,16.55-.74,24.82-1.13,3.43-.16,6.85-.28,10.27-.54,12.82-1,25.63-1.89,38.44-3,6.54-.53,13.06-1.29,19.6-2A773.31,773.31,0,0,0,1672,1087.37c37.92-9.95,74.63-23.18,109.59-41.07,50.69-25.94,94.82-60.23,131.81-103.58a457.74,457.74,0,0,0,59.9-90.47,538.36,538.36,0,0,0,36-90.53c24-81,63.8-153.68,117.41-218.79,75.86-92.12,169.37-160.72,279.08-207.43A690.93,690.93,0,0,1,2528,296.55c17.55-3.88,35.26-7,53.09-9.42,13.31-1.82,26.65-3.36,40-4.28,23.94-1.65,47.92-2.6,71.93-1.46,7.71.37,15.43.48,23.12,1,11.39.76,22.78,1.71,34.15,2.73,6.54.58,13.06,1.39,19.57,2.21,55,6.93,108.2,20.29,158.9,43a416.28,416.28,0,0,1,96.61,59.65c44.68,37.09,79,82.12,103.49,134.7a429.57,429.57,0,0,1,31.1,94.93,487.85,487.85,0,0,1,9.55,115.76Z"></path></svg>