<svg xmlns="http://www.w3.org/2000/svg" id="Layer_1" viewBox="0 0 887.79 397.87"><defs><style>.cls-1{fill:none;}.cls-2{fill:#030403;}.cls-3{fill:#fff;}</style></defs><path d="m323.64,138.65l14.12-90.12h39.39l-14.99,93.86c-.13.77-.23,1.47-.29,2.11-.06.64-.1,1.38-.1,2.21,0,2.37.69,4.24,2.07,5.62,1.38,1.38,3.25,2.07,5.62,2.07,3.07,0,5.49-.99,7.25-2.98,1.76-1.98,2.96-5,3.6-9.03l14.89-93.86h39.2l-14.31,90.02-.29,1.44c-2.75,17.04-6.95,28.92-12.58,35.64-4.48,5.38-10.17,9.42-17.05,12.11-6.89,2.69-15.04,4.04-24.45,4.04-14.73,0-25.65-3.09-32.76-9.27-7.11-6.18-10.66-15.61-10.66-28.29,0-2.05.1-4.29.29-6.73.19-2.43.54-5.38,1.06-8.84Z"></path><path d="m484,107.72h50.15c-1.09,28.44-6.53,49.53-16.33,63.26-9.8,13.74-24.28,20.61-43.42,20.61-14.86,0-26.18-4.56-33.96-13.69-7.78-9.13-11.67-22.34-11.67-39.63,0-13.51,1.62-26.39,4.85-38.62,3.23-12.23,7.77-22.64,13.59-31.22,5.06-7.49,11.4-13.15,19.02-16.96,7.62-3.81,16.36-5.72,26.23-5.72,12.3,0,22.3,2.87,30.02,8.6,7.72,5.73,12.6,13.95,14.65,24.64l-36.03,13.35c-1.03-4.42-2.35-7.51-3.99-9.27-1.63-1.76-3.89-2.64-6.77-2.64s-5.64,1.06-7.88,3.17c-2.24,2.11-4.16,5.38-5.76,9.8-2.18,6.21-4.1,14.2-5.76,23.97-1.67,9.77-2.5,18.17-2.5,25.22,0,5.38.75,9.17,2.26,11.38,1.5,2.21,4.05,3.31,7.64,3.31,4.42,0,7.96-1.89,10.62-5.67,2.66-3.78,4.21-9.16,4.66-16.14h-13.35l3.75-27.77Z"></path><path d="m533.76,188.8l22.29-140.27h39.29l-16.72,105.49h28.73l-5.48,34.78h-68.12Z"></path><path d="m609.76,48.54h41.31l3.94,43.04,17.29-43.04h41.41l-45.73,83.97-8.84,56.3h-39.1l9.03-56.3-19.31-83.97Z"></path><path d="m334,247.23c-2.31-1.22-4.48-2.08-6.53-2.59-2.05-.51-4.13-.77-6.24-.77-9.16,0-16.52,4.37-22.1,13.11s-8.36,20.35-8.36,34.83c0,9.29,1.68,16.17,5.04,20.66,3.36,4.48,8.5,6.72,15.42,6.72,1.67,0,3.47-.18,5.43-.53,1.95-.35,4.02-.88,6.2-1.58l-5.96,33.82c-2.69,1.09-5.6,1.89-8.74,2.4-3.14.51-6.73.77-10.76.77-15.82,0-27.91-4.61-36.27-13.83-8.36-9.22-12.54-22.61-12.54-40.16,0-27.48,6.34-49.59,19.02-66.34,12.68-16.75,29.49-25.12,50.44-25.12,3.84,0,7.59.34,11.24,1.01,3.65.67,7.27,1.65,10.86,2.93l-6.15,34.68Z"></path><path d="m325.16,351.47l22.29-140.27h39.1l-8.07,50.73h16.14l7.88-50.73h39.2l-22.29,140.27h-39.1l8.65-54.86h-15.95l-8.65,54.86h-39.2Z"></path><path d="m433.06,351.47l22.19-140.27h39.2l-22.29,140.27h-39.1Z"></path><path d="m575.83,247.23c-2.31-1.22-4.48-2.08-6.53-2.59-2.05-.51-4.13-.77-6.25-.77-9.16,0-16.52,4.37-22.1,13.11s-8.36,20.35-8.36,34.83c0,9.29,1.68,16.17,5.04,20.66,3.36,4.48,8.5,6.72,15.42,6.72,1.67,0,3.47-.18,5.43-.53,1.95-.35,4.02-.88,6.2-1.58l-5.96,33.82c-2.69,1.09-5.6,1.89-8.74,2.4-3.14.51-6.73.77-10.76.77-15.82,0-27.91-4.61-36.27-13.83-8.36-9.22-12.54-22.61-12.54-40.16,0-27.48,6.34-49.59,19.02-66.34,12.68-16.75,29.49-25.12,50.44-25.12,3.84,0,7.59.34,11.24,1.01,3.65.67,7.27,1.65,10.86,2.93l-6.15,34.68Z"></path><path d="m566.99,351.47l22.29-140.27h39.1l-9.22,58.6,30.94-58.6h39.87l-38.91,64.75,17.68,75.51h-42.46l-9.9-63.79-10.18,63.79h-39.2Z"></path><path d="m674.98,351.47l22.29-140.27h69.46l-5.38,34.01h-30.26l-2.98,17.87h27.38l-5.09,32.86h-27.38l-3.17,19.31h30.36l-5.76,36.22h-69.46Z"></path><path d="m756.07,351.47l22.38-140.27h36.22l12.58,75.32,13.16-75.32h32.86l-22,140.27h-36.03l-13.35-72.63-12.39,72.63h-33.43Z"></path><path class="cls-1" d="m138.18,146.56c.43.96.88,1.93,1.59,3.48.38-15.34-13.34-34.36-30.35-39.58-14.45-4.43-27.19-1.04-38.04,9.4,1.24-.26,2.37-.81,3.5-1.37,13.86-6.85,27.5-7.08,40.86,1.33,10.34,6.51,17.48,15.71,22.45,26.73Z"></path><path class="cls-1" d="m119.11,197.05c4.03-4.93,8.02-9.83,12.07-14.8-6.81-.96-11.85,5.34-12.07,14.8Z"></path><path class="cls-1" d="m179.98,172.66c-11.51.95-21.09,6.06-29.56,13.35-11.81,10.16-19.78,23.04-25.47,37.47,14.74-20.91,31.13-39.89,55.04-50.82Z"></path><path class="cls-1" d="m231.12,188.38c-25.38,22.31-55.06,35.87-87.85,43.23,34.8-3.29,65.63-14.61,87.85-43.23Z"></path><path class="cls-1" d="m153.45,197.7l33.48-22.61c-13.67,3.91-24.12,12.48-33.48,22.61Z"></path><path class="cls-1" d="m217.88,181.38c-.06-.1-.12-.21-.18-.32,0,0,0,0,0,0,.06.11.12.22.18.32Z"></path><path class="cls-1" d="m152.86,216.16c1.94.54,3.84.69,5.62.32,5.66-1.19,11.44-2.11,16.88-3.99,16.58-5.71,30.34-15.59,41.36-29.26-.16-.21-.33-.41-.49-.62-1.23,1.03-2.46,2.06-3.69,3.08-16.53,13.74-34.74,24.29-55.79,29.46-1.3.32-2.59.67-3.89,1Z"></path><path class="cls-1" d="m166.93,200.98c13.51,1.75,38.7-13.84,41.81-25.97-2.23,1.86-4.09,3.6-6.13,5.08-4.53,3.28-9.05,6.6-13.82,9.5-1.18.72-3.73.45-4.86-.41-.83-.63-.42-2.96-.43-4.54,0-.51.41-1.02.63-1.53-2.37,1.13-4.36,2.59-5.99,4.37-2.12,2.31-1.26,4.65,1.89,5.15,1.8.29,3.69.05,5.54.05-2.53,2.08-5.39,4.03-8.52,5.32-3.12,1.29-6.5,1.94-10.12,2.98Z"></path><path class="cls-1" d="m217.62,181.11l-.02.02c-.29.7-.59,1.4-.88,2.1.3-.72.6-1.43.9-2.12Z"></path><path class="cls-1" d="m75.66,90.27c-6.36,2.86-11.63,10.38-11.61,16.2,7.77-10.07,17.65-15.83,30.59-15.98-6.26-3.54-12.67-3.07-18.99-.23Z"></path><path class="cls-1" d="m194.99,333.71c-.25-5-.52-10-.75-15-.25-5.73-2.55-10.58-6.35-15.06-2.37,2.93-4.48,5.81-3.65,9.81,1.78,8.61,3.42,17.25,5.47,25.79.53,2.22,2.35,4.12,3.87,6.66.9-1.22,1.12-1.43,1.23-1.69.11-.27.26-.72.13-.86-2.8-3.14-.68-6.24.05-9.34.02-.1.01-.2,0-.3Z"></path><path class="cls-1" d="m294.75,193.58l1.3.22-1.21-.75c-.03.18-.06.35-.09.53Z"></path><path class="cls-1" d="m247.58,201.78c-.93.91-1.9,1.78-2.93,2.58-15.35,11.83-32.9,19.34-50.97,25.74-16.04,5.68-32.56,9.65-49.28,12.79,0,.33,0,.66-.01.99,1.11,0,2.24.13,3.33-.02,9.6-1.36,19.26-2.45,28.77-4.25,18.3-3.47,35.87-9.18,52.07-18.57,7.23-4.19,13.98-9.06,19-15.89,1.32-1.79,2.21-3.89,3.3-5.85-.23-.12-.46-.24-.69-.36-.86.95-1.68,1.95-2.59,2.85Z"></path><path d="m154.01,198.5c10.97-7.81,21.95-15.61,32.92-23.42l-33.48,22.61c.19.27.38.54.56.8Z"></path><path d="m217.6,181.13c-.46.49-.91.99-1.37,1.48.16.21.33.41.49.62.29-.7.59-1.4.88-2.1Z"></path><path d="m217.67,181.05v-.07c-.03.05-.05.1-.07.15l.02-.02s.04-.04.05-.06Z"></path><path d="m218.16,181.15c-.15-.03-.3-.06-.46-.1.06.11.12.22.18.32.09-.07.18-.15.28-.23Z"></path><path d="m217.7,181.06s-.03-.05-.04-.07c0-.01,0,.06,0,.06,0,0,.02,0,.03,0,0,0,0,0,0,0Z"></path><path class="cls-3" d="m284.13,20.29l-7.62,24.59c-.08.26-.21.5-.37.71l-11.77,14.87-6.63,19.55-11.86,35.59-1.75,19.26c.16.55.08,1.2-.37,1.87,0,0-.04.05-.1.14-.03.05-.07.1-.11.15-.66.9-2.82,3.85-5.09,6.95-2.66,3.63-5.46,7.46-6.17,8.43l10.23,3.21s.03.01.04.02c.07.02.14.06.21.09s.14.06.2.1c.01,0,.03.01.04.02l62.68,38.79,3.3-6.68.03-1.25-.13.21-35.22-24.34,35.46,19.48.12-5.06c-7.72-3.45-14.92-8.04-21.31-13.58,7.68,3.17,14.88,7.45,21.33,12.68h0c0-.26.06-.52.16-.77l4.84-12.07,13.28-35.65c.02-.05.04-.11.07-.16l19.4-41.76.44-3.3-7.73-5.2,9.31,1.86,3.23-1.74,1.29-3.61-.87-.85-68.57-52.55Zm17.89,60.64l-.53,2.51c-.07.33-.18.65-.32.96l-1.21,2.56c-.05.11-.1.22-.14.33l-1.16,3.08-1.06,2.44c-.25.58-.63,1.1-1.11,1.52l-1.61,1.41c-.28.24-.58.44-.91.61l-1.24.62c-1.04.52-2.25.59-3.35.21l-1.8-.63-1.84-.61c-1.2-.4-2.17-1.31-2.63-2.49l-.04-.1c-.42-1.05-.4-2.23.05-3.27l.31-.72c.36-.84.45-1.78.24-2.67-.32-1.37.05-2.81.99-3.85l.29-.33c.48-.53.82-1.17.99-1.87l.29-1.2c.17-.69.5-1.33.98-1.86l.91-1.01c.41-.45.71-.99.9-1.57l.02-.06c.55-1.73,2.13-2.93,3.94-2.99l.43-.02c.3-.01.6-.05.9-.13l.96-.24c1.33-.34,2.75-.01,3.8.87l.58.49c.44.37.79.81,1.06,1.32l.88,1.69c.3.58.46,1.22.48,1.87l.05,2.17c0,.33-.02.66-.09.98Zm24.04,13l-.53,2.51c-.07.33-.18.65-.32.96l-1.21,2.56c-.05.11-.1.22-.14.33l-1.16,3.08-1.06,2.44c-.25.58-.63,1.1-1.11,1.52l-1.61,1.41c-.27.24-.58.44-.91.61l-1.24.62c-1.04.52-2.25.59-3.34.21l-1.8-.63-1.84-.61c-1.2-.4-2.17-1.31-2.63-2.49l-.04-.1c-.42-1.05-.4-2.23.05-3.27l.31-.72c.18-.42.1-2.29.66-4.27.56-1.99,1.76-4.1,1.85-4.45l.29-1.2c.17-.69.5-1.33.98-1.86l.91-1.01c.41-.45.71-.99.9-1.57l.02-.06c.55-1.73,2.13-2.93,3.94-2.99l.43-.02c.3-.01.6-.05.9-.13l.96-.24c1.33-.34,2.75-.01,3.8.87l.58.49c.44.37.8.81,1.06,1.32l.88,1.69c.3.58.46,1.22.48,1.87l.05,2.17c0,.33-.02.66-.09.98Z"></path><path class="cls-3" d="m208.84,145.5c.07-.03.15-.05.23-.07.07-.02.13-.03.2-.04.07-.01.15-.02.22-.02.07,0,.14,0,.21,0,.07,0,.14,0,.21.02.08.01.15.03.23.05.04,0,.08.01.11.02l21.99,6.91,7.47-17.24,1.83-20.18c.02-.17.05-.33.1-.5l11.94-35.84,6.76-19.92c.08-.24.2-.46.36-.66l11.75-14.84,7.43-23.99-1.7.2c-11.94,6.8-24.22,12.98-36.6,18.93-5.37,20.17-11.23,40.42-18.55,59.96,3.66-20.87,8.99-41.61,14.69-62.01,0,0,.1-.37.18-.65l-19.82-12.73-11.03,51.77c-.62,2.89-1.54,5.74-2.74,8.46l-1.51,3.42c-1.93,4.39-3.09,9.04-3.47,13.81l-.59,7.71-4.77,30.65-3.72,14.67,18.5-7.85s.07-.02.11-.03Zm12.47-37.25c.58,9.35-2.06,18.97-7.29,26.74-.56-9.34,2.04-18.98,7.29-26.74Z"></path><path class="cls-3" d="m238.86,34.9c11.68-5.32,23.46-10.45,35.45-15.05l-30.01,3.5c-.08.01-.17.01-.25.01-.1,0-.19,0-.28-.02l-22.62-2.96,16.87,14.91c.08-.04.84-.39.84-.39Z"></path><path d="m357.63,71.53l-1.97-1.92s-.07-.05-.1-.08c-.03-.03-.06-.06-.09-.09l-71.17-54.54s-.08-.05-.12-.08c-.06-.04-.11-.08-.18-.12-.02,0-.03-.02-.05-.03-.06-.03-.13-.05-.19-.08h0s-.08-.05-.13-.06c0,0-.01,0-.01,0-.02,0-.03,0-.05-.01-.07-.02-.15-.03-.22-.04,0,0,0,0-.01,0-.05,0-.1-.02-.15-.03-.01,0-.03,0-.04,0-.07,0-.14,0-.2,0-.07,0-.13,0-.19,0,0,0-.01,0-.02,0l-38.65,4.51-26.84-3.51c-1.14-.15-2.18.61-2.42,1.72h-.01s-12.05,56.58-12.05,56.58c-.56,2.6-1.38,5.16-2.46,7.61l-1.51,3.42c-2.13,4.84-3.41,9.97-3.83,15.24l-.57,7.45-4.7,30.26-4.26,16.8c-.91.63-1.83,1.24-2.79,1.81-9.95,5.9-19.18,3.31-24.39-6.97-1.3-2.56-2.59-5.37-2.86-8.16-.84-8.55-1.49-17.15-1.62-25.74-.12-8.01.92-16.03.76-24.04-.38-18.77-7.88-34.11-23.89-44.36-19.04-12.19-38.82-11.19-58.69-1.81-.55.26-1.02.67-1.52,1.01,9.54-.28,19.02-.76,28.28.42,18.3,2.34,31.96,12.02,40.55,28.51.55,1.05.73,2.3,1.08,3.45-5.04-6.94-10.62-13.03-17.75-17.55-23.04-14.6-54.05-10.82-74.47,8.77-22.67,21.74-26.6,56.97-13.89,84.62.28.61.66,1.18.97,1.72.71-7.74,1.07-15.36,2.17-22.89,2.46-16.91,7.72-32.79,19.23-45.89,11.48-13.06,25.91-19.45,43.38-17.11,19.98,2.68,36.38,17.95,41.35,37.88.81,3.23,1.22,6.56,1.81,9.84-.99-.38-1.35-.92-1.58-1.51-2.85-7.36-6.87-14.05-12.1-19.94-10.73-12.08-23.75-19.67-40.37-19.33-12.33.25-22.08,5.53-28.12,16.52-4.92,8.94-6.39,18.64-5.26,28.79.25,2.29.42,4.9-.42,6.94-6.04,14.65-9.01,29.7-6.52,45.51,2.53,16.09,9.81,29.52,22.91,39.51,1.43,1.09,3.06,1.93,4.59,2.88-.61-2.1-1.54-3.75-2.41-5.43-7.45-14.36-10.75-29.5-8.26-45.62,1.84-11.89,7.1-21.88,17.49-28.56,3.71-2.38,7.76-4.11,12.96-4.77-11.05,7.59-15.11,12.18-18.42,20.48-8.15,20.49-2.17,46.15,14.46,61.97.08.08.31.01.24.01-.97-5.8-2.23-11.57-2.85-17.41-1.19-11.32-.47-22.45,5.01-32.77,5.35-10.07,15.19-14.85,26.39-12.96.46.08.87.46,1.51.82-3.86.82-7.42,1.33-10.84,2.35-7.32,2.18-12.88,6.43-14.99,14.18-1.91,7,.72,14.74,5.94,17.68,3.48-11.99,10.6-18.09,19.53-15.83-1.1.31-1.94.54-2.78.8-8.04,2.55-13.23,9.62-13.32,18.05-.06,5.57,1.5,10.72,4.47,15.34,1.58,2.46,1.34,4.34.07,6.83-3.8,7.49-7.74,14.97-10.7,22.8-1.83,4.84-2.6,10.29-2.74,15.5-.16,5.71,4.54,10.9,9.36,11.89-3.64-7.55-1.1-15.01,6.33-18.25,0,7.59,2.27,14,9.28,18.12-1.94-7.42.31-13,6.38-17.12,3.06,4.05,5.9,7.92,8.86,11.71,2.09,2.68,4.87,4.96,6.39,7.91,4.68,9.13,11.21,16.54,19.28,22.73.84.65,1.76,1.48,2.13,2.43,3.79,9.67,8.07,19.2,11.01,29.13,2.54,8.59,3.53,17.63,5.18,26.48.57,3.05-1.06,4.91-3.78,5.54-2.5.58-5.13.65-7.71.81-3.56.22-5.61,1.53-6.42,4.1,1.68.12,3.59-.16,5.13.46,3.66,1.45,7.07,1.53,10.71-.06,1.59-.7,3.53-.84,5.31-.86,9.13-.14,18,.89,25.95,5.96.96.61,2.66,1.5,3.19,1.12,2.72-1.95,5.26-.97,8.31.25-2.18-5.33-6.92-6.09-11.08-7.82,1.12-.39,2.18-.69,3.18-.55,4.25.6,8.5,1.24,12.72,2.04,2.34.45,4.56,1.53,6.61-.89.51-.6,2.06-.46,3.13-.42,1.2.04,2.4.34,3.93.58-3.48-6.64-9.92-3.94-14.97-5.05.04-.36.08-.71.12-1.07,1.95-.24,3.9-.47,6.04-.73-1.87-2.67-4.27-3.74-7.47-3.52-4.09.28-8.2.48-12.29.37-5.5-.16-7.26-1.64-7.75-7.12-.7-7.87-.9-15.78-1.39-23.67-.2-3.3.85-6.2,2.95-8.58,5.25-5.94,8.59-12.97,12.25-19.88,5.16-9.75,12.38-17.53,22.31-22.85,6.69-3.58,13.1-7.76,19.3-12.14,18.14-12.84,29.29-30.29,34.06-52.01.14-.65.26-1.29.39-1.94l12.08,2.03c.12.02.25.03.37.03.04,0,.08-.02.12-.02.03,0,.07.01.1.01,0,0,.01,0,.02,0,.19,0,.37-.03.55-.08.06-.02.12-.05.18-.07.12-.04.24-.09.35-.15.07-.04.12-.09.19-.13.09-.07.19-.14.27-.22.06-.06.11-.13.16-.2.05-.06.11-.11.15-.18.02-.04.04-.08.06-.12.01-.02.03-.04.04-.06l4.58-9.27c.14-.29.22-.6.23-.92l.29-11.95,4.72-11.75,13.27-35.62,19.51-41.98c.09-.2.16-.41.18-.63l.55-4.09,3.22-1.73c.48-.26.84-.68,1.03-1.19l2.04-5.73c.29-.81.08-1.71-.53-2.31Zm-113.87-48.18c.09.01.19.02.28.02.08,0,.17,0,.25-.01l30.01-3.5c-11.99,4.6-23.77,9.73-35.45,15.05,0,0-.76.35-.84.39l-16.87-14.91,22.62,2.96Zm-49.81,115.37l4.77-30.65.59-7.71c.37-4.77,1.54-9.42,3.47-13.81l1.51-3.42c1.2-2.73,2.12-5.57,2.74-8.46l11.03-51.77,19.82,12.73c-.08.28-.18.65-.18.65-5.7,20.4-11.03,41.15-14.69,62.01,7.32-19.54,13.19-39.79,18.55-59.96,12.38-5.95,24.66-12.13,36.6-18.93l1.7-.2-7.43,23.99-11.75,14.84c-.16.2-.28.42-.36.66l-6.76,19.92-11.94,35.84c-.05.16-.09.33-.1.5l-1.83,20.18-7.47,17.24-21.99-6.91s-.08-.01-.11-.02c-.08-.02-.15-.04-.23-.05-.07-.01-.14-.02-.21-.02-.07,0-.14,0-.21,0-.07,0-.15.01-.22.02-.07.01-.13.02-.2.04-.08.02-.15.04-.23.07-.04.01-.07.02-.11.03l-18.5,7.85,3.72-14.67Zm-13.93,53.92c-3.15-.5-4.02-2.83-1.89-5.15,1.63-1.78,3.62-3.24,5.99-4.37-.22.51-.64,1.02-.63,1.53.01,1.58-.4,3.91.43,4.54,1.12.86,3.67,1.13,4.86.41,4.77-2.9,9.29-6.22,13.82-9.5,2.04-1.48,3.9-3.22,6.13-5.08-3.11,12.13-28.3,27.72-41.81,25.97,3.62-1.03,7-1.68,10.12-2.98,3.13-1.3,5.99-3.24,8.52-5.32-1.85,0-3.73.23-5.54-.05Zm32.51-6.94c1.23-1.02,2.46-2.05,3.69-3.08.46-.49.91-.99,1.37-1.48.02-.05.04-.1.06-.15v.07s0-.07,0-.06c.01.02.03.05.04.07.15.03.3.06.46.1-.09.08-.18.15-.28.23-.06-.11-.12-.22-.18-.32,0,0-.02,0-.03,0-.02.02-.03.04-.05.06-.3.7-.6,1.41-.9,2.12-11.01,13.67-24.78,23.54-41.36,29.26-5.44,1.87-11.22,2.79-16.88,3.99-1.78.38-3.68.22-5.62-.32,1.29-.34,2.59-.68,3.89-1,21.06-5.17,39.26-15.72,55.79-29.46Zm-25.6-10.6c-10.97,7.81-21.94,15.61-32.92,23.42-.19-.27-.38-.54-.56-.8,9.37-10.14,19.81-18.7,33.48-22.61Zm-122.88-68.61c-.03-5.82,5.25-13.34,11.61-16.2,6.32-2.84,12.73-3.31,18.99.23-12.94.15-22.83,5.91-30.59,15.98Zm51.68,13.35c-13.36-8.41-27-8.18-40.86-1.33-1.13.56-2.26,1.1-3.5,1.37,10.86-10.45,23.6-13.83,38.04-9.4,17.01,5.21,30.74,24.23,30.35,39.58-.71-1.55-1.16-2.51-1.59-3.48-4.97-11.02-12.11-20.22-22.45-26.73Zm3.38,77.22c.23-9.46,5.26-15.76,12.07-14.8-4.05,4.97-8.05,9.86-12.07,14.8Zm5.83,26.43c5.7-14.44,13.66-27.32,25.47-37.47,8.48-7.29,18.05-12.4,29.56-13.35-23.91,10.93-40.3,29.91-55.04,50.82Zm18.33,8.13c32.78-7.36,62.47-20.92,87.85-43.23-22.22,28.62-53.05,39.93-87.85,43.23Zm51.66,111.75c.13.14-.02.59-.13.86-.11.26-.33.47-1.23,1.69-1.52-2.53-3.34-4.44-3.87-6.66-2.05-8.54-3.69-17.18-5.47-25.79-.82-4,1.28-6.87,3.65-9.81,3.81,4.48,6.1,9.33,6.35,15.06.22,5,.5,10,.75,15,0,.1.02.2,0,.3-.73,3.11-2.85,6.2-.05,9.34Zm52.63-138.22c-5.02,6.84-11.77,11.71-19,15.89-16.21,9.39-33.78,15.1-52.07,18.57-9.52,1.8-19.17,2.89-28.77,4.25-1.09.16-2.22.02-3.33.02,0-.33.01-.66.01-.99,16.72-3.14,33.24-7.11,49.28-12.79,18.07-6.4,35.62-13.91,50.97-25.74,1.03-.79,2-1.67,2.93-2.58.91-.9,1.73-1.9,2.59-2.85.23.12.46.24.69.36-1.09,1.96-1.98,4.06-3.3,5.85Zm47.18-11.56c.03-.18.06-.35.09-.53l1.21.75-1.3-.22Zm57.53-116.28l-3.23,1.74-9.31-1.86,7.73,5.2-.44,3.3-19.4,41.76c-.02.05-.05.1-.07.16l-13.28,35.65-4.84,12.07c-.1.24-.15.5-.16.76h0c-6.45-5.23-13.65-9.51-21.33-12.68,6.38,5.55,13.58,10.14,21.31,13.58l-.12,5.06-35.46-19.48,35.22,24.34.13-.21-.03,1.25-3.3,6.68-62.68-38.79s-.03-.01-.04-.02c-.06-.04-.13-.07-.2-.1s-.14-.07-.21-.09c-.01,0-.03-.01-.04-.02l-10.23-3.21c.71-.97,3.51-4.8,6.17-8.43,2.27-3.1,4.43-6.05,5.09-6.95.04-.05.07-.1.11-.15.06-.09.1-.14.1-.14.44-.67.52-1.31.37-1.87l1.75-19.26,11.86-35.59,6.63-19.55,11.77-14.87c.17-.21.29-.45.37-.71l7.62-24.59,68.57,52.55.87.85-1.29,3.61Z"></path><path d="m221.31,108.24c-5.24,7.76-7.85,17.4-7.29,26.74,5.22-7.77,7.87-17.4,7.29-26.74Z"></path><path class="cls-2" d="m301.58,75.9l-.88-1.69c-.26-.5-.62-.95-1.06-1.32l-.58-.49c-1.05-.88-2.47-1.21-3.8-.87l-.96.24c-.29.07-.59.12-.9.13l-.43.02c-1.81.06-3.39,1.26-3.94,2.99l-.02.06c-.18.58-.49,1.11-.9,1.57l-.91,1.01c-.48.53-.81,1.17-.98,1.86l-.29,1.2c-.17.7-.51,1.34-.99,1.87l-.29.33c-.94,1.04-1.31,2.48-.99,3.85.21.89.13,1.83-.24,2.67l-.31.72c-.45,1.04-.47,2.22-.05,3.27l.04.1c.47,1.18,1.43,2.09,2.63,2.49l1.84.61,1.8.63c1.1.39,2.3.31,3.35-.21l1.24-.62c.33-.16.63-.37.91-.61l1.61-1.41c.48-.42.86-.93,1.11-1.52l1.06-2.44,1.16-3.08c.04-.11.09-.22.14-.33l1.21-2.56c.14-.3.25-.63.32-.96l.53-2.51c.07-.32.1-.65.09-.98l-.05-2.17c-.01-.65-.18-1.29-.48-1.87Zm-4.16,9.82c-.07-.1-.12-.21-.2-.31-1.13-1.4-3.18-1.61-4.58-.48-1.37,1.11-1.59,3.09-.54,4.48-1.42-.08-2.81-.72-3.78-1.92-1.83-2.25-1.48-5.56.77-7.39,2.25-1.83,5.56-1.48,7.39.77,1.14,1.41,1.44,3.23.95,4.84Z"></path><path class="cls-3" d="m289.09,80.11c-2.25,1.83-2.6,5.13-.77,7.39.97,1.19,2.35,1.83,3.78,1.92-1.05-1.39-.82-3.37.54-4.48,1.4-1.13,3.45-.92,4.58.48.08.1.14.21.2.31.49-1.61.2-3.43-.95-4.84-1.83-2.25-5.13-2.6-7.39-.77Z"></path><path class="cls-2" d="m325.63,88.9l-.88-1.69c-.26-.5-.62-.95-1.06-1.32l-.58-.49c-1.05-.88-2.47-1.21-3.8-.87l-.96.24c-.29.07-.59.12-.9.13l-.43.02c-1.81.06-3.39,1.26-3.94,2.99l-.02.06c-.18.58-.49,1.11-.9,1.57l-.91,1.01c-.48.53-.81,1.17-.98,1.86l-.29,1.2c-.08.35-1.29,2.46-1.85,4.45-.56,1.99-.48,3.85-.66,4.27l-.31.72c-.45,1.04-.47,2.22-.05,3.27l.04.1c.47,1.18,1.43,2.09,2.63,2.49l1.84.61,1.8.63c1.1.39,2.3.31,3.34-.21l1.24-.62c.33-.16.63-.37.91-.61l1.61-1.41c.48-.42.86-.93,1.11-1.52l1.06-2.44,1.16-3.08c.04-.11.09-.22.14-.33l1.21-2.56c.14-.31.25-.63.32-.96l.53-2.51c.07-.32.1-.65.09-.98l-.05-2.17c-.01-.65-.18-1.29-.48-1.87Zm-6.41,12.58c-.81-.69-1.95-.97-3.04-.64-1.72.52-2.7,2.34-2.18,4.06.06.19.14.38.23.55-2.29.04-4.42-1.41-5.12-3.71-.84-2.78.73-5.71,3.51-6.54,2.78-.84,5.71.73,6.54,3.51.28.94.27,1.89.05,2.77Z"></path><path class="cls-3" d="m312.62,95.2c-2.78.84-4.35,3.77-3.51,6.54.69,2.3,2.83,3.75,5.12,3.71-.09-.18-.17-.36-.23-.55-.52-1.72.46-3.54,2.18-4.06,1.1-.33,2.23-.05,3.04.64.22-.89.23-1.84-.05-2.77-.84-2.78-3.77-4.35-6.54-3.51Z"></path></svg>